<svg width="598" height="270" viewBox="0 0 598 270" fill="none" xmlns="http://www.w3.org/2000/svg">
<mask id="mask0" mask-type="alpha" maskUnits="userSpaceOnUse" x="0" y="0" width="598" height="270">
<rect width="598" height="270" fill="#D9F4F4"/>
</mask>
<g mask="url(#mask0)">
<path d="M231.249 362.216C272.748 420.716 324.39 510.257 415.85 503.773C529.311 495.73 610.844 398.441 598.947 282.752C584.447 141.752 242.223 -0.284184 174.868 73.3703C116.027 137.716 189.749 303.716 231.249 362.216Z" fill="url(#paint0_linear)"/>
<circle cx="266" cy="238" r="236.568" transform="rotate(113.69 266 238)" stroke="url(#paint1_linear)" stroke-width="2"/>
</g>
<path fill-rule="evenodd" clip-rule="evenodd" d="M33.2903 153C33.2903 152.448 32.8426 152 32.2903 152H1C0.447715 152 0 152.448 0 153L0 235.335C0 235.887 0.447716 236.335 1 236.335H83.3348C83.8871 236.335 84.3348 235.887 84.3348 235.335V204.151C84.3348 203.6 84.78 203.153 85.3307 203.151L87.3464 203.142C87.6308 203.141 87.9009 203.263 88.0984 203.467C90.5329 205.991 93.954 207.554 97.737 207.539C105.091 207.509 111.028 201.522 110.998 194.168C110.968 186.814 104.982 180.877 97.6279 180.907C93.845 180.922 90.437 182.514 88.0232 185.057C87.8274 185.263 87.5584 185.387 87.2739 185.388L85.3389 185.396C84.785 185.398 84.3348 184.95 84.3348 184.396V153C84.3348 152.448 83.8871 152 83.3348 152H52.045C51.4927 152 51.045 152.448 51.045 153V154.943C51.045 155.228 51.1676 155.497 51.3731 155.694C53.9061 158.118 55.4837 161.533 55.4837 165.316C55.4837 172.67 49.5219 178.632 42.1676 178.632C34.8134 178.632 28.8516 172.67 28.8516 165.316C28.8516 161.533 30.4291 158.118 32.9622 155.694C33.1678 155.497 33.2903 155.228 33.2903 154.943V153Z" fill="url(#paint2_linear)"/>
<mask id="mask1" mask-type="alpha" maskUnits="userSpaceOnUse" x="0" y="152" width="111" height="85">
<path fill-rule="evenodd" clip-rule="evenodd" d="M33.2903 153C33.2903 152.448 32.8426 152 32.2903 152H1C0.447715 152 0 152.448 0 153L0 235.335C0 235.887 0.447716 236.335 1 236.335H83.3348C83.8871 236.335 84.3348 235.887 84.3348 235.335V204.151C84.3348 203.6 84.78 203.153 85.3307 203.151L87.3464 203.142C87.6308 203.141 87.9009 203.263 88.0984 203.467C90.5329 205.991 93.954 207.554 97.737 207.539C105.091 207.509 111.028 201.522 110.998 194.168C110.968 186.814 104.982 180.877 97.6279 180.907C93.845 180.922 90.437 182.514 88.0232 185.057C87.8274 185.263 87.5584 185.387 87.2739 185.388L85.3389 185.396C84.785 185.398 84.3348 184.95 84.3348 184.396V153C84.3348 152.448 83.8871 152 83.3348 152H52.045C51.4927 152 51.045 152.448 51.045 153V154.943C51.045 155.228 51.1676 155.497 51.3731 155.694C53.9061 158.118 55.4837 161.533 55.4837 165.316C55.4837 172.67 49.5219 178.632 42.1676 178.632C34.8134 178.632 28.8516 172.67 28.8516 165.316C28.8516 161.533 30.4291 158.118 32.9622 155.694C33.1678 155.497 33.2903 155.228 33.2903 154.943V153Z" fill="url(#paint3_linear)"/>
</mask>
<g mask="url(#mask1)">
<path d="M61.0021 148C28.0019 152.5 5.21548 166.551 -2.05956 197.403C-9.33461 228.255 40.3824 241.853 47.501 221.017C61.0021 181.5 -38.3972 132.495 -42.4989 148M18.002 135.889C28.502 157.455 21.002 207 -12.4996 200C-36.507 194.984 -20.0022 76.6336 89.5009 177.5C81.8274 173.327 34.0489 192 34.0489 209C34.0489 237.5 93.2007 243.3 114.002 246.5" stroke="url(#paint4_linear)" stroke-width="1.5"/>
</g>
<path fill-rule="evenodd" clip-rule="evenodd" d="M140 201.661C139.448 201.661 139 202.108 139 202.661V235C139 235.552 139.448 236 140 236H174.633C175.185 236 175.633 235.552 175.633 235L175.633 232.942C175.633 232.658 175.511 232.388 175.305 232.192C172.686 229.69 171.055 226.163 171.056 222.255C171.057 214.669 177.209 208.52 184.795 208.521C192.382 208.522 198.531 214.673 198.53 222.26C198.529 226.168 196.897 229.694 194.277 232.195C194.072 232.391 193.949 232.661 193.949 232.945L193.949 235C193.949 235.552 194.396 236 194.949 236H225C225.552 236 226 235.552 226 235V150C226 149.448 225.552 149 225 149H194.949C194.396 149 193.949 149.448 193.949 150L193.949 152.05C193.949 152.334 194.072 152.604 194.277 152.8C196.897 155.301 198.529 158.827 198.53 162.735C198.531 170.321 192.382 176.473 184.795 176.474C177.209 176.475 171.057 170.326 171.056 162.739C171.055 158.832 172.686 155.305 175.305 152.803C175.511 152.607 175.633 152.337 175.633 152.053L175.633 150C175.633 149.448 175.185 149 174.633 149H140C139.448 149 139 149.448 139 150V182.345C139 182.897 139.448 183.345 140 183.345H142.051C142.336 183.345 142.605 183.222 142.802 183.017C145.303 180.398 148.83 178.766 152.737 178.766C160.324 178.766 166.474 184.916 166.474 192.503C166.474 200.089 160.324 206.24 152.737 206.24C148.83 206.24 145.303 204.608 142.802 201.989C142.605 201.783 142.336 201.661 142.051 201.661H140Z" fill="url(#paint5_linear)"/>
<mask id="mask2" mask-type="alpha" maskUnits="userSpaceOnUse" x="139" y="149" width="87" height="87">
<path fill-rule="evenodd" clip-rule="evenodd" d="M140 201.661C139.448 201.661 139 202.108 139 202.661V235C139 235.552 139.448 236 140 236H174.633C175.185 236 175.633 235.552 175.633 235L175.633 232.942C175.633 232.658 175.511 232.388 175.305 232.192C172.686 229.69 171.055 226.163 171.056 222.255C171.057 214.669 177.209 208.52 184.795 208.521C192.382 208.522 198.531 214.673 198.53 222.26C198.529 226.168 196.897 229.694 194.277 232.195C194.072 232.391 193.949 232.661 193.949 232.945L193.949 235C193.949 235.552 194.396 236 194.949 236H225C225.552 236 226 235.552 226 235V150C226 149.448 225.552 149 225 149H194.949C194.396 149 193.949 149.448 193.949 150L193.949 152.05C193.949 152.334 194.072 152.604 194.277 152.8C196.897 155.301 198.529 158.827 198.53 162.735C198.531 170.321 192.382 176.473 184.795 176.474C177.209 176.475 171.057 170.326 171.056 162.739C171.055 158.832 172.686 155.305 175.305 152.803C175.511 152.607 175.633 152.337 175.633 152.053L175.633 150C175.633 149.448 175.185 149 174.633 149H140C139.448 149 139 149.448 139 150V182.345C139 182.897 139.448 183.345 140 183.345H142.051C142.336 183.345 142.605 183.222 142.802 183.017C145.303 180.398 148.83 178.766 152.737 178.766C160.324 178.766 166.474 184.916 166.474 192.503C166.474 200.089 160.324 206.24 152.737 206.24C148.83 206.24 145.303 204.608 142.802 201.989C142.605 201.783 142.336 201.661 142.051 201.661H140Z" fill="url(#paint6_linear)"/>
</mask>
<g mask="url(#mask2)">
<path d="M154.002 189C147.501 183.605 145.502 171.563 154.002 163.5C169.501 148.8 186.597 149.162 197.499 148.8C203.395 148.604 209.298 150.583 214.233 153.735C216.899 155.437 219.282 157.646 218.955 161.058C218.325 167.639 210.72 170.388 205.732 173.115C193.343 179.889 179.285 185.284 167.609 193.05C135.445 214.444 174.943 272.962 204.988 248.203C234.677 223.736 191.531 198.074 181.27 176.661C175.769 165.182 196.427 173.588 199.711 174.9C208.683 178.483 217.435 182.842 226.656 185.772C235.575 188.606 245.147 188.96 254.367 187.554C255.01 187.456 264.109 186.177 262.862 183.605C261.27 180.323 252.859 181.707 250.306 182.19C242.664 183.637 236.916 188.427 231.438 193.677C222.668 202.084 214.95 211.613 206.664 220.491C197.55 230.257 198.429 240.129 197.499 254.5" stroke="url(#paint7_linear)" stroke-width="1.5" stroke-linecap="round" stroke-linejoin="round"/>
</g>
<rect x="490.867" y="197.014" width="10.9078" height="10.9078" rx="1" transform="rotate(-55.7248 490.867 197.014)" fill="#F25254"/>
<defs>
<linearGradient id="paint0_linear" x1="242.75" y1="3.7156" x2="519.182" y2="543.971" gradientUnits="userSpaceOnUse">
<stop stop-color="#149CE8" stop-opacity="0.2"/>
<stop offset="0.649108" stop-color="#D7F3F4" stop-opacity="0.13"/>
</linearGradient>
<linearGradient id="paint1_linear" x1="271.994" y1="472.358" x2="267.179" y2="0.432175" gradientUnits="userSpaceOnUse">
<stop stop-color="#149CE8"/>
<stop offset="1" stop-color="#58C5E8" stop-opacity="0.12"/>
</linearGradient>
<linearGradient id="paint2_linear" x1="-29.9706" y1="258.733" x2="68.4026" y2="188.158" gradientUnits="userSpaceOnUse">
<stop stop-color="#124077"/>
<stop offset="0.985841" stop-color="#159BE7"/>
</linearGradient>
<linearGradient id="paint3_linear" x1="13.2488" y1="163.855" x2="248.241" y2="204.994" gradientUnits="userSpaceOnUse">
<stop stop-color="#577E94"/>
<stop offset="0.985841" stop-color="#124178"/>
</linearGradient>
<linearGradient id="paint4_linear" x1="2.00192" y1="234.5" x2="89.002" y2="151" gradientUnits="userSpaceOnUse">
<stop stop-color="#D7F3F4" stop-opacity="0.97"/>
<stop offset="1" stop-color="#D7F3F4" stop-opacity="0.5"/>
</linearGradient>
<linearGradient id="paint5_linear" x1="416.433" y1="364.413" x2="21.7427" y2="51.1219" gradientUnits="userSpaceOnUse">
<stop offset="0.23209" stop-color="#124178"/>
<stop offset="0.655313" stop-color="#149CE8"/>
</linearGradient>
<linearGradient id="paint6_linear" x1="225.324" y1="257.581" x2="66.3436" y2="25.2246" gradientUnits="userSpaceOnUse">
<stop stop-color="#7CB5CF"/>
<stop offset="0.718844" stop-color="#145AA8"/>
</linearGradient>
<linearGradient id="paint7_linear" x1="172.664" y1="143.746" x2="216.566" y2="256.816" gradientUnits="userSpaceOnUse">
<stop stop-color="#D7F3F4" stop-opacity="0.45"/>
<stop offset="0.791667" stop-color="#D7F3F4" stop-opacity="0.88"/>
<stop offset="0.96875" stop-color="#D7F3F4" stop-opacity="0.88"/>
</linearGradient>
</defs>
</svg>
