<svg width="34" height="34" viewBox="0 0 34 34" fill="none" xmlns="http://www.w3.org/2000/svg">
<path d="M0 29.616C0 32.0374 1.96284 34 4.38401 34H29.6159C32.0374 34 34 32.0372 34 29.616V4.38414C34 1.96257 32.0372 0 29.616 0H4.38414C1.96257 0 0 1.96284 0 4.38401V29.6159V29.616Z" fill="#563D7C"/>
<path d="M14.0989 15.0394V10.2246H18.3371C18.7409 10.2246 19.13 10.2582 19.5048 10.3255C19.8796 10.3927 20.2113 10.5128 20.4996 10.6858C20.7878 10.8589 21.0185 11.0991 21.1916 11.4066C21.3645 11.7142 21.4511 12.1083 21.4511 12.5886C21.4511 13.4536 21.1916 14.0784 20.6725 14.4628C20.1536 14.8472 19.4905 15.0394 18.6831 15.0394H14.0989ZM9.57227 6.70703V27.293H19.5481C20.4708 27.293 21.3694 27.1777 22.244 26.947C23.1186 26.7163 23.897 26.3608 24.5794 25.8802C25.2616 25.3997 25.8047 24.7798 26.2083 24.0206C26.6121 23.2613 26.8138 22.3627 26.8138 21.3248C26.8138 20.0369 26.5014 18.9365 25.8768 18.0236C25.2521 17.1105 24.3054 16.4714 23.0367 16.1062C23.9594 15.6642 24.6563 15.0971 25.1272 14.4051C25.598 13.7132 25.8335 12.8483 25.8335 11.8102C25.8335 10.8492 25.6749 10.042 25.3578 9.38838C25.0406 8.73495 24.5937 8.21113 24.017 7.81708C23.4405 7.42302 22.7485 7.13947 21.9412 6.96655C21.1339 6.79349 20.2401 6.70703 19.2598 6.70703H9.57227ZM14.0989 23.7754V18.1244H19.0291C20.0094 18.1244 20.7975 18.3502 21.3934 18.802C21.9892 19.2537 22.2873 20.0081 22.2873 21.0653C22.2873 21.6035 22.1959 22.0455 22.0133 22.3915C21.8307 22.7375 21.5856 23.0115 21.278 23.2132C20.9706 23.4151 20.6149 23.5592 20.2113 23.6458C19.8075 23.7321 19.3848 23.7754 18.9426 23.7754H14.0989Z" fill="white"/>
</svg>
