<svg width="618" height="246" viewBox="0 0 618 246" fill="none" xmlns="http://www.w3.org/2000/svg">
<mask id="mask0" mask-type="alpha" maskUnits="userSpaceOnUse" x="0" y="0" width="618" height="246">
<rect width="618" height="246" fill="#D9F4F4"/>
</mask>
<g mask="url(#mask0)">
<path d="M487.009 73.9063C345.591 42.9863 167.616 144.916 121.85 224.366C51.388 346.687 111.298 448.945 165.997 483.471C239.705 529.997 456.911 422.018 528.348 377.866C672.348 288.866 628.427 104.826 487.009 73.9063Z" fill="url(#paint0_linear)"/>
<circle cx="236.002" cy="278" r="236.568" transform="rotate(90.0395 236.002 278)" stroke="url(#paint1_linear)" stroke-width="2"/>
</g>
<path fill-rule="evenodd" clip-rule="evenodd" d="M285 78.7082C284.448 78.7082 284 79.1559 284 79.7082V110.999C284 111.551 284.448 111.999 285 111.999H367.335C367.887 111.999 368.335 111.551 368.335 110.999V28.6637C368.335 28.1114 367.887 27.6637 367.335 27.6637H336.151C335.6 27.6637 335.153 27.2185 335.151 26.6678L335.142 24.6521C335.141 24.3677 335.263 24.0977 335.467 23.9001C337.991 21.4656 339.554 18.0446 339.539 14.2615C339.509 6.90736 333.522 0.970055 326.168 1.00019C318.814 1.03033 312.877 7.01649 312.907 14.3707C312.922 18.1536 314.514 21.5616 317.057 23.9753C317.263 24.1712 317.387 24.4402 317.388 24.7246L317.396 26.6596C317.398 27.2135 316.95 27.6637 316.396 27.6637H285C284.448 27.6637 284 28.1114 284 28.6637V59.9535C284 60.5058 284.448 60.9535 285 60.9535H286.943C287.228 60.9535 287.497 60.831 287.694 60.6255C290.118 58.0924 293.533 56.5149 297.316 56.5149C304.67 56.5149 310.632 62.4767 310.632 69.8309C310.632 77.1851 304.67 83.1469 297.316 83.1469C293.533 83.1469 290.118 81.5694 287.694 79.0363C287.497 78.8308 287.228 78.7082 286.943 78.7082H285Z" fill="url(#paint2_linear)"/>
<mask id="mask1" mask-type="alpha" maskUnits="userSpaceOnUse" x="284" y="1" width="85" height="111">
<path fill-rule="evenodd" clip-rule="evenodd" d="M285 78.7082C284.448 78.7082 284 79.1559 284 79.7082V110.999C284 111.551 284.448 111.999 285 111.999H367.335C367.887 111.999 368.335 111.551 368.335 110.999V28.6637C368.335 28.1114 367.887 27.6637 367.335 27.6637H336.151C335.6 27.6637 335.153 27.2185 335.151 26.6678L335.142 24.6521C335.141 24.3677 335.263 24.0977 335.467 23.9001C337.991 21.4656 339.554 18.0446 339.539 14.2615C339.509 6.90736 333.522 0.970055 326.168 1.00019C318.814 1.03033 312.877 7.01649 312.907 14.3707C312.922 18.1536 314.514 21.5616 317.057 23.9753C317.263 24.1712 317.387 24.4402 317.388 24.7246L317.396 26.6596C317.398 27.2135 316.95 27.6637 316.396 27.6637H285C284.448 27.6637 284 28.1114 284 28.6637V59.9535C284 60.5058 284.448 60.9535 285 60.9535H286.943C287.228 60.9535 287.497 60.831 287.694 60.6255C290.118 58.0924 293.533 56.5149 297.316 56.5149C304.67 56.5149 310.632 62.4767 310.632 69.8309C310.632 77.1851 304.67 83.1469 297.316 83.1469C293.533 83.1469 290.118 81.5694 287.694 79.0363C287.497 78.8308 287.228 78.7082 286.943 78.7082H285Z" fill="url(#paint3_linear)"/>
</mask>
<g mask="url(#mask1)">
<path d="M277.5 59.5001C297.177 86.3715 323.809 93.7357 354.401 85.4346C384.994 77.1335 373.265 26.9427 351.554 30.6097C310.377 37.5644 314.642 148.305 330.229 144.525M279 107.5C295 81.0001 361.255 68.1477 360.409 83.0002C358.501 116.5 174.001 164 293.284 14.4128C293.271 23.1473 332.45 56.2606 347.397 48.1621C372.455 34.5852 349.375 -20.1864 342.28 -39.9998" stroke="url(#paint4_linear)" stroke-width="1.5"/>
</g>
<path fill-rule="evenodd" clip-rule="evenodd" d="M389 190.661C388.448 190.661 388 191.108 388 191.661V224C388 224.552 388.448 225 389 225H423.633C424.185 225 424.633 224.552 424.633 224L424.633 221.942C424.633 221.658 424.511 221.388 424.305 221.192C421.686 218.69 420.055 215.163 420.056 211.255C420.057 203.669 426.209 197.52 433.795 197.521C441.382 197.522 447.531 203.673 447.53 211.26C447.529 215.168 445.897 218.694 443.277 221.195C443.072 221.391 442.949 221.661 442.949 221.945L442.949 224C442.949 224.552 443.396 225 443.949 225H474C474.552 225 475 224.552 475 224V139C475 138.448 474.552 138 474 138H443.949C443.396 138 442.949 138.448 442.949 139L442.949 141.05C442.949 141.334 443.072 141.604 443.277 141.8C445.897 144.301 447.529 147.827 447.53 151.735C447.531 159.321 441.382 165.473 433.795 165.474C426.209 165.475 420.057 159.326 420.056 151.739C420.055 147.832 421.686 144.305 424.305 141.803C424.511 141.607 424.633 141.337 424.633 141.053L424.633 139C424.633 138.448 424.185 138 423.633 138H389C388.448 138 388 138.448 388 139V171.345C388 171.897 388.448 172.345 389 172.345H391.051C391.336 172.345 391.605 172.222 391.802 172.017C394.303 169.398 397.83 167.766 401.737 167.766C409.324 167.766 415.474 173.916 415.474 181.503C415.474 189.089 409.324 195.24 401.737 195.24C397.83 195.24 394.303 193.608 391.802 190.989C391.605 190.783 391.336 190.661 391.051 190.661H389Z" fill="url(#paint5_linear)"/>
<mask id="mask2" mask-type="alpha" maskUnits="userSpaceOnUse" x="388" y="138" width="87" height="87">
<path fill-rule="evenodd" clip-rule="evenodd" d="M389 190.661C388.448 190.661 388 191.108 388 191.661V224C388 224.552 388.448 225 389 225H423.633C424.185 225 424.633 224.552 424.633 224L424.633 221.942C424.633 221.658 424.511 221.388 424.305 221.192C421.686 218.69 420.055 215.163 420.056 211.255C420.057 203.669 426.209 197.52 433.795 197.521C441.382 197.522 447.531 203.673 447.53 211.26C447.529 215.168 445.897 218.694 443.277 221.195C443.072 221.391 442.949 221.661 442.949 221.945L442.949 224C442.949 224.552 443.396 225 443.949 225H474C474.552 225 475 224.552 475 224V139C475 138.448 474.552 138 474 138H443.949C443.396 138 442.949 138.448 442.949 139L442.949 141.05C442.949 141.334 443.072 141.604 443.277 141.8C445.897 144.301 447.529 147.827 447.53 151.735C447.531 159.321 441.382 165.473 433.795 165.474C426.209 165.475 420.057 159.326 420.056 151.739C420.055 147.832 421.686 144.305 424.305 141.803C424.511 141.607 424.633 141.337 424.633 141.053L424.633 139C424.633 138.448 424.185 138 423.633 138H389C388.448 138 388 138.448 388 139V171.345C388 171.897 388.448 172.345 389 172.345H391.051C391.336 172.345 391.605 172.222 391.802 172.017C394.303 169.398 397.83 167.766 401.737 167.766C409.324 167.766 415.474 173.916 415.474 181.503C415.474 189.089 409.324 195.24 401.737 195.24C397.83 195.24 394.303 193.608 391.802 190.989C391.605 190.783 391.336 190.661 391.051 190.661H389Z" fill="url(#paint6_linear)"/>
</mask>
<g mask="url(#mask2)">
<path d="M403.002 178C396.501 172.605 394.502 160.563 403.002 152.5C418.501 137.8 435.597 138.162 446.499 137.8C452.395 137.604 458.298 139.583 463.233 142.735C465.899 144.437 468.282 146.646 467.955 150.058C467.325 156.639 459.72 159.388 454.732 162.115C442.343 168.889 428.285 174.284 416.609 182.05C384.445 203.444 423.943 261.962 453.988 237.203C483.677 212.736 440.531 187.074 430.27 165.661C424.769 154.182 445.427 162.588 448.711 163.9C457.683 167.483 466.435 171.842 475.656 174.772C484.575 177.606 494.147 177.96 503.367 176.554C504.01 176.456 513.109 175.177 511.862 172.605C510.27 169.323 501.859 170.707 499.306 171.19C491.664 172.637 485.916 177.427 480.438 182.677C471.668 191.084 463.95 200.613 455.664 209.491C446.55 219.257 447.429 229.129 446.499 243.5" stroke="url(#paint7_linear)" stroke-width="1.5" stroke-linecap="round" stroke-linejoin="round"/>
</g>
<defs>
<linearGradient id="paint0_linear" x1="254.348" y1="404.866" x2="731.738" y2="-174.783" gradientUnits="userSpaceOnUse">
<stop stop-color="white" stop-opacity="0"/>
<stop offset="1" stop-color="white" stop-opacity="0.69"/>
</linearGradient>
<linearGradient id="paint1_linear" x1="241.997" y1="512.358" x2="237.181" y2="40.4322" gradientUnits="userSpaceOnUse">
<stop stop-color="#F25254"/>
<stop offset="1" stop-color="#F25254" stop-opacity="0"/>
</linearGradient>
<linearGradient id="paint2_linear" x1="665.5" y1="325" x2="264.496" y2="13.0053" gradientUnits="userSpaceOnUse">
<stop stop-color="#13539A"/>
<stop offset="0.985841" stop-color="#F25254"/>
</linearGradient>
<linearGradient id="paint3_linear" x1="295.855" y1="98.7498" x2="336.994" y2="-136.242" gradientUnits="userSpaceOnUse">
<stop stop-color="#577E94"/>
<stop offset="0.985841" stop-color="#B7DEE0"/>
</linearGradient>
<linearGradient id="paint4_linear" x1="267.5" y1="-28" x2="347.374" y2="121.639" gradientUnits="userSpaceOnUse">
<stop stop-color="white" stop-opacity="0.83"/>
<stop offset="1" stop-color="#DEF0F9" stop-opacity="0.63"/>
</linearGradient>
<linearGradient id="paint5_linear" x1="665.433" y1="353.412" x2="166.5" y2="-38" gradientUnits="userSpaceOnUse">
<stop offset="0.372838" stop-color="#F25254"/>
<stop offset="1" stop-color="#13539A"/>
</linearGradient>
<linearGradient id="paint6_linear" x1="474.324" y1="246.581" x2="315.344" y2="14.2246" gradientUnits="userSpaceOnUse">
<stop stop-color="#7CB5CF"/>
<stop offset="0.718844" stop-color="#577E94"/>
</linearGradient>
<linearGradient id="paint7_linear" x1="394.5" y1="145.5" x2="480.5" y2="242" gradientUnits="userSpaceOnUse">
<stop stop-color="white" stop-opacity="0.81"/>
<stop offset="0.96875" stop-color="#D7F3F4" stop-opacity="0.47"/>
</linearGradient>
</defs>
</svg>
