<svg width="27" height="38" viewBox="0 0 27 38" fill="none" xmlns="http://www.w3.org/2000/svg">
<g clip-path="url(#clip0)">
<path d="M21.1576 1.40611H18.918L21.2476 3.92798V5.12735H16.4483V3.72276H18.7778L16.4483 1.20089V0H21.1591L21.1576 1.40611ZM15.4954 1.40611H13.2528L15.5854 3.92798V5.12735H10.7845V3.72276H13.114L10.7845 1.20089V0H15.4954V1.40611ZM9.88808 1.46387H7.47166V3.665H9.88808V5.12887H5.75195V0H9.88808V1.46387Z" fill="#131313"/>
<path d="M2.45759 34.949L0 7.46973H27L24.5394 34.9445L13.4832 37.9999L2.45759 34.949Z" fill="#1572B6"/>
<path d="M13.5 35.6653L22.4339 33.1951L24.5348 9.7168H13.5V35.6653Z" fill="#33A9DC"/>
<path d="M13.5 19.6718H17.9731L18.281 16.2211H13.5V12.8525H21.9766L21.8958 13.757L21.0649 23.0449H13.5V19.6718Z" fill="white"/>
<path d="M13.5183 28.4247H13.5031L9.73892 27.4107L9.49804 24.7231H6.10742L6.58156 30.0147L13.5061 31.9362H13.5259V28.4247H13.5183Z" fill="#EBEBEB"/>
<path d="M17.6871 22.8975L17.28 27.4077L13.5098 28.4216V31.9331L20.4389 30.0178L20.4892 29.4477L21.0777 22.896H17.6871V22.8975Z" fill="white"/>
<path d="M13.5123 12.8525V16.2226H5.34983L5.2797 15.4656L5.12572 13.757L5.04492 12.8525H13.5123ZM13.5001 19.6718V23.0418H9.77867L9.71311 22.2848L9.55913 20.5762L9.47833 19.6718H13.4986H13.5001Z" fill="#EBEBEB"/>
</g>
<defs>
<clipPath id="clip0">
<rect width="27" height="38" fill="white"/>
</clipPath>
</defs>
</svg>
