<svg width="86" height="25" viewBox="0 0 86 25" fill="none" xmlns="http://www.w3.org/2000/svg">
<path d="M0.559672 19.3978V9.84332H12.5096V9.28444H0.559672V0.567984H13.2652V0.00927734H0V19.9565H13.377V19.3978H0.55984H0.559672ZM24.1517 5.59668L19.1983 12.1061L14.3566 5.59685H13.629L18.8624 12.5253L13.1251 19.9564H13.7968L19.198 12.944L24.6272 19.9564H25.3268L19.5618 12.525L24.8231 5.59651H24.1516L24.1517 5.59668ZM27.0062 24.8736V15.9338H27.0621C27.3981 17.2375 28.0604 18.2851 29.0492 19.0767C30.038 19.8682 31.2973 20.2641 32.8271 20.2641C33.816 20.2641 34.6929 20.0639 35.4579 19.6634C36.2228 19.263 36.8618 18.7182 37.3749 18.0291C37.8879 17.3399 38.2797 16.5391 38.5503 15.6264C38.8208 14.7139 38.9562 13.7546 38.9562 12.749C38.9562 11.6687 38.8161 10.6722 38.5362 9.75964C38.2564 8.84697 37.8506 8.05536 37.319 7.38497C36.7872 6.71443 36.1435 6.19278 35.3878 5.82053C34.6323 5.44795 33.7787 5.26165 32.8271 5.26165C32.0995 5.26165 31.4233 5.3688 30.7982 5.58293C30.1732 5.79722 29.6183 6.09971 29.1332 6.49091C28.6452 6.88511 28.2205 7.35144 27.8737 7.87376C27.5193 8.40463 27.2487 8.98664 27.0621 9.61997H27.0062V5.59668H26.4465V24.8736H27.0062ZM32.8271 19.733C31.0735 19.733 29.6648 19.1324 28.6014 17.9311C27.538 16.7299 27.0062 15.0023 27.0062 12.7487C27.0062 11.8174 27.1369 10.9327 27.3981 10.0947C27.6592 9.25661 28.037 8.52083 28.5313 7.88768C29.0258 7.25435 29.6369 6.75148 30.3644 6.37907C31.092 6.00648 31.9131 5.82019 32.8271 5.82019C33.76 5.82019 34.5764 6.00648 35.276 6.37907C35.9755 6.75148 36.554 7.25905 37.0111 7.90159C37.4681 8.54414 37.8133 9.27991 38.0466 10.1086C38.2797 10.9374 38.3963 11.8174 38.3963 12.7487C38.3963 13.5869 38.2891 14.4205 38.0745 15.2491C37.86 16.078 37.5288 16.823 37.0809 17.4843C36.6333 18.1453 36.0597 18.6854 35.3599 19.1046C34.6602 19.5236 33.816 19.733 32.8271 19.733ZM42.0345 19.9565V11.8268C42.0345 11.0446 42.1464 10.2808 42.3705 9.53596C42.5942 8.79096 42.9394 8.13433 43.4058 7.5664C43.8723 6.99831 44.4645 6.55127 45.1829 6.22531C45.9012 5.89934 46.7548 5.76436 47.7436 5.82019V5.26149C46.8853 5.24304 46.1345 5.33594 45.4908 5.54084C44.847 5.74574 44.292 6.0251 43.8256 6.37907C43.3591 6.73287 42.9861 7.14721 42.7062 7.62224C42.4266 8.09652 42.2191 8.60962 42.0905 9.14476H42.0345V5.59668H41.4748V19.9567H42.0345V19.9565ZM48.4432 12.8884H60.477C60.5144 11.9012 60.4165 10.9515 60.1832 10.0388C59.9501 9.12615 59.5768 8.31593 59.0639 7.60832C58.5507 6.90055 57.8884 6.33245 57.0768 5.90403C56.2652 5.47561 55.2997 5.26149 54.1803 5.26149C53.378 5.26149 52.5944 5.42917 51.8294 5.76452C51.0645 6.09971 50.3928 6.5885 49.8145 7.23104C49.2362 7.87359 48.7697 8.66051 48.4153 9.59196C48.0609 10.5231 47.8835 11.5847 47.8835 12.7767C47.8835 13.8383 48.0048 14.8301 48.2473 15.752C48.4899 16.6739 48.8629 17.4749 49.3667 18.1547C49.8706 18.8344 50.519 19.3606 51.3118 19.733C52.1046 20.1056 53.0608 20.2825 54.1803 20.2639C55.8221 20.2639 57.2028 19.8028 58.3221 18.881C59.4416 17.959 60.1039 16.66 60.3092 14.9837H59.7495C59.507 16.5669 58.8865 17.7542 57.8884 18.5457C56.8902 19.3373 55.6356 19.733 54.1242 19.733C53.0981 19.733 52.2306 19.5561 51.5216 19.2023C50.8127 18.8485 50.2342 18.3641 49.7864 17.7495C49.3388 17.1348 49.0076 16.4131 48.7931 15.5843C48.5784 14.7556 48.4618 13.8569 48.4432 12.8884ZM59.9173 12.3297H48.4434C48.4991 11.3239 48.6857 10.4206 49.0029 9.6198C49.3202 8.8188 49.7352 8.13433 50.2484 7.5664C50.7613 6.99831 51.3585 6.56536 52.0394 6.26723C52.7204 5.96926 53.4527 5.82019 54.2363 5.82019C55.1692 5.82019 55.9899 5.99257 56.699 6.33715C57.4079 6.68173 58.0003 7.15207 58.4761 7.748C58.9518 8.34393 59.3109 9.03779 59.5535 9.82923C59.796 10.6208 59.9173 11.4544 59.9173 12.3297ZM72.0912 9.84332H72.6508C72.6508 8.24148 72.1844 7.07745 71.2517 6.35107C70.3186 5.62468 69.0499 5.26149 67.4455 5.26149C66.5499 5.26149 65.7944 5.37333 65.1786 5.59685C64.563 5.82019 64.0592 6.10894 63.6674 6.46274C63.2757 6.81654 62.9958 7.20774 62.8279 7.63616C62.6599 8.06458 62.5759 8.47439 62.5759 8.86541C62.5759 9.64763 62.7158 10.2716 62.9958 10.7372C63.2757 11.2029 63.7141 11.566 64.311 11.8268C64.7215 12.0129 65.1878 12.1806 65.7104 12.3298C66.2328 12.4787 66.8391 12.637 67.5295 12.8045C68.1451 12.9538 68.7515 13.1027 69.3486 13.2516C69.9455 13.4006 70.4726 13.6008 70.9297 13.8522C71.3869 14.1037 71.7599 14.425 72.0492 14.8162C72.3383 15.2072 72.4829 15.7195 72.4829 16.3526C72.4829 16.9673 72.3384 17.4888 72.0492 17.9171C71.7624 18.3432 71.385 18.701 70.9438 18.9649C70.496 19.2348 69.9968 19.4304 69.4465 19.5514C68.8961 19.6725 68.3597 19.733 67.8374 19.733C66.1395 19.733 64.8381 19.3559 63.9333 18.6017C63.0284 17.8473 62.5761 16.66 62.5761 15.0395H62.0162C62.0162 16.8463 62.506 18.1686 63.4855 19.0068C64.4651 19.8449 65.9156 20.2639 67.8374 20.2639C68.453 20.2639 69.0733 20.194 69.6985 20.0543C70.3233 19.9146 70.8831 19.6866 71.3775 19.3698C71.8676 19.0576 72.2793 18.6371 72.5808 18.1407C72.8887 17.6377 73.0427 17.0232 73.0427 16.2968C73.0427 15.6076 72.9073 15.0489 72.6369 14.6205C72.3663 14.1922 72.0119 13.8383 71.5733 13.5589C71.1349 13.2796 70.6406 13.0607 70.0902 12.9025C69.5366 12.7432 68.9815 12.5895 68.4249 12.4413C67.7399 12.2619 67.0543 12.085 66.368 11.9106C65.7804 11.7616 65.2347 11.5847 64.731 11.3798C64.2459 11.1749 63.8587 10.8816 63.5695 10.4998C63.2802 10.118 63.1358 9.57319 63.1358 8.86541C63.1358 8.73513 63.173 8.50222 63.2476 8.16703C63.3222 7.83167 63.4996 7.49179 63.7794 7.14721C64.0592 6.80279 64.4882 6.49544 65.0667 6.22531C65.645 5.95534 66.438 5.82019 67.4455 5.82019C68.1359 5.82019 68.7654 5.89481 69.3345 6.04371C69.9036 6.19278 70.3933 6.43021 70.8037 6.75618C71.2142 7.08215 71.5313 7.49648 71.7552 7.99935C71.9791 8.50239 72.0912 9.11693 72.0912 9.84332ZM85.0485 9.84332H85.6081C85.6081 8.24148 85.1418 7.07745 84.209 6.35107C83.2761 5.62468 82.0074 5.26149 80.4028 5.26149C79.5073 5.26149 78.7516 5.37333 78.136 5.59685C77.5203 5.82019 77.0165 6.10894 76.6248 6.46274C76.233 6.81654 75.9531 7.20774 75.7851 7.63616C75.6172 8.06458 75.5334 8.47439 75.5334 8.86541C75.5334 9.64763 75.6733 10.2716 75.9533 10.7372C76.233 11.2029 76.6715 11.566 77.2685 11.8268C77.679 12.0129 78.1453 12.1806 78.6677 12.3298C79.19 12.4787 79.7964 12.637 80.4868 12.8045C81.1025 12.9538 81.7089 13.1027 82.3059 13.2516C82.903 13.4006 83.4299 13.6008 83.8871 13.8522C84.3442 14.1037 84.7174 14.425 85.0065 14.8162C85.2957 15.2072 85.4403 15.7195 85.4403 16.3526C85.4403 16.9673 85.2957 17.4888 85.0065 17.9171C84.7197 18.3432 84.3424 18.701 83.9012 18.9649C83.4533 19.2348 82.9542 19.4304 82.4038 19.5514C81.8535 19.6725 81.317 19.733 80.7946 19.733C79.0968 19.733 77.7956 19.3559 76.8907 18.6017C75.9857 17.8473 75.5334 16.66 75.5334 15.0395H74.9737C74.9737 16.8463 75.4633 18.1686 76.4429 19.0068C77.4223 19.8449 78.8729 20.2639 80.7946 20.2639C81.4104 20.2639 82.0307 20.194 82.6557 20.0543C83.2806 19.9146 83.8404 19.6866 84.3349 19.3698C84.8251 19.0576 85.2368 18.6371 85.5383 18.1407C85.8461 17.6377 86 17.0232 86 16.2968C86 15.6076 85.8648 15.0489 85.5942 14.6205C85.3238 14.1922 84.9693 13.8383 84.5308 13.5589C84.0924 13.2796 83.5979 13.0607 83.0476 12.9025C82.4941 12.7432 81.939 12.5895 81.3824 12.4413C80.6974 12.2619 80.0117 12.085 79.3254 11.9106C78.7377 11.7616 78.192 11.5847 77.6882 11.3798C77.2031 11.1749 76.816 10.8816 76.5269 10.4998C76.2377 10.118 76.093 9.57319 76.093 8.86541C76.093 8.73513 76.1303 8.50222 76.2051 8.16703C76.2796 7.83167 76.457 7.49179 76.7367 7.14721C77.0165 6.80279 77.4457 6.49544 78.024 6.22531C78.6025 5.95534 79.3953 5.82019 80.4029 5.82019C81.0933 5.82019 81.7228 5.89481 82.2919 6.04371C82.861 6.19278 83.3506 6.43021 83.7611 6.75618C84.1717 7.08215 84.4888 7.49648 84.7127 7.99935C84.9366 8.50239 85.0486 9.11693 85.0486 9.84332H85.0485Z" fill="#222222"/>
</svg>
