<svg width="38" height="43" viewBox="0 0 38 43" fill="none" xmlns="http://www.w3.org/2000/svg">
<g clip-path="url(#clip0)">
<path fill-rule="evenodd" clip-rule="evenodd" d="M22.9012 4.82579L31.5054 9.82233C31.7538 9.55798 32.0389 9.3311 32.3518 9.14871C34.1362 8.11692 36.4123 8.72953 37.4488 10.5243C38.4747 12.3191 37.8656 14.6082 36.0811 15.6506C35.7705 15.8305 35.4358 15.9645 35.0873 16.0486V26.0453C35.432 26.1295 35.7631 26.2627 36.0705 26.4407C37.8656 27.4831 38.4747 29.7723 37.4382 31.5671C36.4123 33.3618 34.1256 33.9744 32.3411 32.9428C31.9953 32.7433 31.6839 32.489 31.4187 32.1897L22.8668 37.1555C22.9921 37.5369 23.0557 37.936 23.0552 38.3377C23.0552 40.4011 21.3884 42.0885 19.326 42.0885C17.2636 42.0885 15.5967 40.4118 15.5967 38.3377C15.5967 37.969 15.6494 37.6129 15.7476 37.2765L7.1456 32.2814C6.89991 32.5405 6.61886 32.7632 6.31086 32.9428C4.5157 33.9744 2.23959 33.3618 1.2137 31.5671C0.187951 29.7723 0.797056 27.4831 2.58146 26.4407C2.88886 26.2626 3.21988 26.1295 3.56458 26.0452V16.0486C3.21608 15.9645 2.8814 15.8305 2.57084 15.6506C0.786291 14.619 0.177186 12.3191 1.20308 10.5243C2.22897 8.72953 4.51555 8.11692 6.3001 9.14871C6.61128 9.33012 6.89495 9.55555 7.1424 9.81809L15.7492 4.82023C15.6477 4.4739 15.5964 4.11468 15.5967 3.75362C15.5967 1.67966 17.2636 0.00292969 19.326 0.00292969C21.3884 0.00292969 23.0552 1.67951 23.0552 3.75362C23.0552 4.12642 23.0014 4.4862 22.9012 4.82579ZM22.0047 6.36528L30.6295 11.3735C30.4922 11.8564 30.4528 12.362 30.5137 12.8605C30.5746 13.359 30.7346 13.84 30.9841 14.275C31.5091 15.1936 32.3643 15.8025 33.3136 16.0398V26.049C33.2651 26.0609 33.217 26.0739 33.1691 26.0876L21.9045 6.46551C21.9385 6.43273 21.972 6.39937 22.0047 6.36543V6.36528ZM16.7497 6.4677L5.48529 26.0895C5.43658 26.0754 5.3876 26.0622 5.33836 26.05V16.0398C6.28759 15.8025 7.14283 15.1936 7.66786 14.275C7.91784 13.8392 8.07794 13.3571 8.1386 12.8576C8.19926 12.3582 8.15924 11.8515 8.02092 11.368L16.6432 6.36119C16.678 6.39732 16.7135 6.43288 16.7497 6.46755V6.4677ZM20.368 7.35654L31.6298 26.974C31.3719 27.2215 31.1507 27.5052 30.9733 27.8163C30.7963 28.1255 30.6639 28.4584 30.5802 28.8051H8.07199C7.98815 28.4584 7.8557 28.1255 7.67862 27.8163C7.50056 27.5074 7.27986 27.2254 7.02311 26.9788L18.2871 7.35742C18.6248 7.45522 18.9745 7.50467 19.326 7.50432C19.6878 7.50432 20.0373 7.45282 20.368 7.35654ZM22.0839 35.8109L30.6527 30.8351C30.627 30.7539 30.604 30.6718 30.5839 30.589H8.06718C8.05526 30.6378 8.04231 30.686 8.02849 30.7342L16.6392 35.7344C16.9869 35.3707 17.4042 35.0816 17.8659 34.8844C18.3277 34.6872 18.8243 34.5861 19.326 34.587C19.8451 34.5861 20.3587 34.6945 20.8337 34.9053C21.3087 35.1161 21.7346 35.4246 22.0839 35.8109Z" fill="#E535AB"/>
</g>
<defs>
<clipPath id="clip0">
<rect width="37.2417" height="42.1419" fill="white" transform="translate(0.705078)"/>
</clipPath>
</defs>
</svg>
