<svg width="59" height="49" viewBox="0 0 59 49" fill="none" xmlns="http://www.w3.org/2000/svg">
<mask id="path-1-inside-1" fill="white">
<path fill-rule="evenodd" clip-rule="evenodd" d="M22.8071 0C10.2111 0 0 10.2111 0 22.8071C0 35.4031 10.2111 45.6142 22.8071 45.6142H35.4238C37.1573 45.6142 38.8456 45.4208 40.4683 45.0544C40.8849 44.9603 41.3155 45.1932 41.7211 45.3271L52.6432 48.9331C53.3874 49.1788 54.1122 48.5118 53.929 47.7498L52.146 40.3326C51.9052 39.3308 52.2066 38.2848 52.8706 37.497C56.2154 33.5287 58.2309 28.4032 58.2309 22.8071C58.2309 10.2111 48.0198 0 35.4238 0H22.8071Z"/>
</mask>
<path d="M52.6432 48.9331L53.7405 45.6096L53.7405 45.6096L52.6432 48.9331ZM53.929 47.7498L50.5259 48.5678V48.5679L53.929 47.7498ZM40.4683 45.0544L41.2392 48.4685L40.4683 45.0544ZM3.5 22.8071C3.5 12.1441 12.1441 3.5 22.8071 3.5V-3.5C8.27808 -3.5 -3.5 8.27809 -3.5 22.8071H3.5ZM22.8071 42.1142C12.1441 42.1142 3.5 33.4701 3.5 22.8071H-3.5C-3.5 37.3361 8.2781 49.1142 22.8071 49.1142V42.1142ZM35.4238 42.1142H22.8071V49.1142H35.4238V42.1142ZM39.6975 41.6403C38.326 41.95 36.8962 42.1142 35.4238 42.1142V49.1142C37.4184 49.1142 39.3652 48.8916 41.2392 48.4685L39.6975 41.6403ZM40.6238 48.6506L51.5459 52.2567L53.7405 45.6096L42.8184 42.0035L40.6238 48.6506ZM51.5459 52.2566C54.8948 53.3623 58.1564 50.3609 57.3321 46.9317L50.5259 48.5679C50.068 46.6628 51.88 44.9953 53.7405 45.6096L51.5459 52.2566ZM57.3321 46.9318L55.5491 39.5145L48.743 41.1506L50.5259 48.5678L57.3321 46.9318ZM54.7309 22.8071C54.7309 27.5473 53.0271 31.8806 50.1944 35.2414L55.5469 39.7526C59.4037 35.1767 61.7309 29.2591 61.7309 22.8071H54.7309ZM35.4238 3.5C46.0868 3.5 54.7309 12.1441 54.7309 22.8071H61.7309C61.7309 8.27809 49.9528 -3.5 35.4238 -3.5V3.5ZM22.8071 3.5H35.4238V-3.5H22.8071V3.5ZM55.5491 39.5145C55.5727 39.6129 55.563 39.6903 55.5528 39.729C55.5438 39.7631 55.5357 39.7659 55.5469 39.7526L50.1944 35.2414C48.904 36.7724 48.2109 38.9371 48.743 41.1506L55.5491 39.5145ZM41.2392 48.4685C40.9079 48.5433 40.6252 48.5405 40.4292 48.5206C40.2423 48.5016 40.1189 48.4654 40.0921 48.4573C40.0706 48.4509 40.0758 48.4512 40.1777 48.4896C40.2437 48.5145 40.4345 48.5881 40.6238 48.6506L42.8184 42.0035C42.8214 42.0045 42.8123 42.0016 42.7813 41.9901C42.7444 41.9765 42.7154 41.9654 42.6479 41.9399C42.542 41.9 42.3375 41.8228 42.1055 41.7532C41.663 41.6203 40.7665 41.399 39.6975 41.6403L41.2392 48.4685Z" fill="url(#paint0_radial)" mask="url(#path-1-inside-1)"/>
<path d="M17.4692 21.4393L26.15 30.0857L39.7911 16.4985" stroke="url(#paint1_linear)" stroke-width="3.5"/>
<defs>
<radialGradient id="paint0_radial" cx="0" cy="0" r="1" gradientUnits="userSpaceOnUse" gradientTransform="translate(29.1154 24.4925) rotate(3.50097) scale(70.19 150.903)">
<stop stop-color="#13539A"/>
<stop offset="1" stop-color="#149CE8"/>
</radialGradient>
<linearGradient id="paint1_linear" x1="-42.0056" y1="24.0887" x2="65.0984" y2="30.3729" gradientUnits="userSpaceOnUse">
<stop stop-color="#13539A"/>
<stop offset="1" stop-color="#149CE8"/>
</linearGradient>
</defs>
</svg>
