<svg width="375" height="526" viewBox="0 0 375 526" fill="none" xmlns="http://www.w3.org/2000/svg">
<circle cx="117.872" cy="262.918" r="115.876" transform="rotate(-89.0043 117.872 262.918)" fill="url(#paint0_linear)"/>
<circle cx="335.405" cy="263.113" r="198.315" transform="rotate(113.733 335.405 263.113)" stroke="url(#paint1_linear)" stroke-width="2"/>
<circle cx="139.08" cy="263.537" r="17.1187" transform="rotate(-41.2539 139.08 263.537)" fill="url(#paint2_radial)"/>
<mask id="mask0" mask-type="alpha" maskUnits="userSpaceOnUse" x="121" y="246" width="36" height="35">
<circle cx="139.077" cy="263.535" r="17.1187" transform="rotate(104.38 139.077 263.535)" fill="url(#paint3_radial)"/>
</mask>
<g mask="url(#mask0)">
<path d="M122.67 257.757C126.975 246.652 148.087 278.755 157.975 282.392C175.572 288.864 115.569 261.232 105.64 273.892C95.7113 286.551 104.118 300.368 124.665 286.192C129.285 283.004 122.715 262.635 138.097 243.047C153.479 223.458 172.937 295.44 157.567 292.495C139.889 289.108 136.949 243.336 151.085 230.671" stroke="url(#paint4_linear)"/>
</g>
<defs>
<linearGradient id="paint0_linear" x1="122.211" y1="56.94" x2="120.076" y2="394.481" gradientUnits="userSpaceOnUse">
<stop stop-color="#149CE8" stop-opacity="0.36"/>
<stop offset="1" stop-color="#D7F3F4" stop-opacity="0"/>
</linearGradient>
<linearGradient id="paint1_linear" x1="424.286" y1="443.032" x2="218.837" y2="-25.1263" gradientUnits="userSpaceOnUse">
<stop stop-color="#149CE8"/>
<stop offset="0.954438" stop-color="#149CE8" stop-opacity="0"/>
</linearGradient>
<radialGradient id="paint2_radial" cx="0" cy="0" r="1" gradientUnits="userSpaceOnUse" gradientTransform="translate(138.269 250.458) rotate(98.475) scale(43.2436 89.2068)">
<stop stop-color="#FB4A4A"/>
<stop offset="1" stop-color="#7DB6D0"/>
</radialGradient>
<radialGradient id="paint3_radial" cx="0" cy="0" r="1" gradientUnits="userSpaceOnUse" gradientTransform="translate(144.819 298.261) rotate(-92.3091) scale(60.6983 125.214)">
<stop offset="0.00923759" stop-color="#C0B88B"/>
<stop offset="0.679906" stop-color="#58C5E8"/>
</radialGradient>
<linearGradient id="paint4_linear" x1="120.861" y1="246.54" x2="138.304" y2="280.26" gradientUnits="userSpaceOnUse">
<stop stop-color="#149CE8"/>
<stop offset="1" stop-color="#D7F3F4"/>
</linearGradient>
</defs>
</svg>
