<svg width="52" height="28" viewBox="0 0 52 28" fill="none" xmlns="http://www.w3.org/2000/svg">
<path fill-rule="evenodd" clip-rule="evenodd" d="M0 28V0H51.2108V28H29.08V23.8167C33.938 22.8048 37.5809 18.554 37.5135 13.2913C37.5135 7.42147 33.1278 2.4961 26.9206 2.4961C20.7135 2.4961 16.3278 7.42147 16.3278 13.2913C16.3278 18.3523 19.6341 22.3332 23.9523 23.6811V19.0256C21.6579 17.6082 20.7141 15.5182 20.7141 13.2907C20.7141 9.78199 23.0753 6.81366 26.9213 6.81366C30.8347 6.81366 33.1291 9.78199 33.1291 13.2907C33.1291 15.9898 31.2401 18.8913 29.0807 19.2954V15.7868H25.3022V27.9993H0V28ZM14.8436 2.90021H7.89436C5.53319 2.90021 2.69913 4.5193 2.69913 8.36529C2.69913 13.628 10.9976 15.7868 10.9976 18.0137C10.9976 18.8913 10.3905 19.4978 9.58091 19.4978H2.7666V23.6811H9.71584C14.3039 23.6811 15.5857 20.2399 15.5857 17.3397C15.5857 13.0208 7.35401 10.1874 7.35401 8.29783C7.35401 7.42082 7.8269 6.74555 8.90629 6.74555H14.8436V2.90021ZM38.526 2.90021V17.4059C38.526 21.9946 40.7523 23.6805 44.126 23.6805H48.4443V19.2954H45.138C43.6531 19.2954 42.9117 18.7557 42.9117 16.7993V2.90021H38.526Z" fill="black"/>
</svg>
