<svg width="75" height="52" viewBox="0 0 75 52" fill="none" xmlns="http://www.w3.org/2000/svg">
<path fill-rule="evenodd" clip-rule="evenodd" d="M57.2458 45.7656C57.1916 45.7604 57.1371 45.7701 57.0881 45.7935L56.2533 46.192C53.3441 47.5807 50.0853 48.36 46.6343 48.36C34.2852 48.36 24.2743 38.3491 24.2743 26C24.2743 13.6509 34.2852 3.64 46.6343 3.64C58.9834 3.64 68.9943 13.6509 68.9943 26C68.9943 28.6746 68.5263 31.2318 67.6708 33.5995L67.3534 34.478C67.3347 34.5297 67.3306 34.5854 67.3414 34.6392L69.7433 46.5675C69.783 46.7648 69.6211 46.9445 69.4207 46.9254L57.2458 45.7656ZM73.9571 51.014C74.1574 51.0331 74.3193 50.8534 74.2796 50.6562L71.1108 34.9187C71.0999 34.8649 71.1041 34.8092 71.1226 34.7575C72.1013 32.0211 72.6343 29.0728 72.6343 26C72.6343 11.6406 60.9937 0 46.6343 0C32.2749 0 20.6343 11.6406 20.6343 26C20.6343 40.3594 32.2749 52 46.6343 52C50.6099 52 54.377 51.1077 57.7464 49.5125C57.7955 49.4893 57.85 49.4796 57.9041 49.4848L73.9571 51.014Z" fill="url(#paint0_linear)"/>
<path fill-rule="evenodd" clip-rule="evenodd" d="M27.725 0C42.0844 0 53.725 11.6406 53.725 26C53.725 40.3594 42.0844 52 27.725 52C23.72 52 19.9264 51.0944 16.538 49.4769L0 51.0524L3.26517 34.8365C2.26841 32.0779 1.72504 29.1024 1.72504 26C1.72504 11.6406 13.3656 0 27.725 0Z" fill="white"/>
<path fill-rule="evenodd" clip-rule="evenodd" d="M17.1136 45.7656C17.1677 45.7604 17.2222 45.7701 17.2713 45.7935L18.1061 46.192C21.0153 47.5807 24.274 48.36 27.725 48.36C40.0741 48.36 50.085 38.3491 50.085 26C50.085 13.6509 40.0741 3.64 27.725 3.64C15.376 3.64 5.36504 13.6509 5.36504 26C5.36504 28.6746 5.83305 31.2318 6.68855 33.5995L7.006 34.478C7.02465 34.5297 7.02878 34.5854 7.01795 34.6392L4.6161 46.5675C4.57638 46.7648 4.73832 46.9445 4.93865 46.9254L17.1136 45.7656ZM0.402322 51.014C0.201993 51.0331 0.040053 50.8534 0.079776 50.6562L3.24861 34.9187C3.25944 34.8649 3.25528 34.8092 3.2368 34.7575C2.2581 32.0211 1.72504 29.0728 1.72504 26C1.72504 11.6406 13.3656 0 27.725 0C42.0844 0 53.725 11.6406 53.725 26C53.725 40.3594 42.0844 52 27.725 52C23.7495 52 19.9824 51.1077 16.613 49.5125C16.5638 49.4893 16.5094 49.4796 16.4552 49.4848L0.402322 51.014Z" fill="url(#paint1_linear)"/>
<path d="M28.6699 16C30.5745 16 32.1057 16.5053 33.2634 17.516C34.4211 18.5267 35 19.9586 35 21.8115C35 23.6832 34.4025 25.115 33.2074 26.107C32.129 27.0163 30.7053 27.5246 28.9364 27.6318C28.6644 27.6483 28.4458 27.8693 28.4458 28.1418V29.9866C28.4458 30.2628 28.222 30.4866 27.9458 30.4866H25.2206C24.9445 30.4866 24.7206 30.2628 24.7206 29.9866V25.5682C24.7206 25.292 24.9445 25.0682 25.2206 25.0682H26.3172C27.8296 25.0682 29.006 24.8436 29.8463 24.3944C30.6866 23.9265 31.1067 23.0749 31.1067 21.8396C31.1067 21.016 30.8733 20.3797 30.4065 19.9305C29.9397 19.4626 29.3141 19.2286 28.5299 19.2286C27.6709 19.2286 26.9894 19.4813 26.4852 19.9866C26.0922 20.366 25.8524 20.8363 25.7657 21.3975C25.7236 21.6704 25.5051 21.8957 25.229 21.8957H22.4874C22.2177 21.8957 21.9943 21.6816 22.0053 21.4121C22.0432 20.4832 22.2854 19.6431 22.732 18.8917C23.2548 17.9933 24.0204 17.2914 25.0287 16.7861C26.0557 16.262 27.2695 16 28.6699 16ZM28.254 32.873C28.5301 32.873 28.754 33.0968 28.754 33.373V36.5C28.754 36.7761 28.5301 37 28.254 37H24.9966C24.7204 37 24.4966 36.7761 24.4966 36.5V33.373C24.4966 33.0968 24.7204 32.873 24.9966 32.873H28.254Z" fill="url(#paint2_linear)"/>
<defs>
<linearGradient id="paint0_linear" x1="79.0394" y1="55.64" x2="55.1192" y2="32.7602" gradientUnits="userSpaceOnUse">
<stop stop-color="#149CE8"/>
<stop offset="1" stop-color="#13539A"/>
</linearGradient>
<linearGradient id="paint1_linear" x1="-2.08" y1="54.6" x2="21.3202" y2="31.2002" gradientUnits="userSpaceOnUse">
<stop stop-color="#149CE8"/>
<stop offset="1" stop-color="#13539A"/>
</linearGradient>
<linearGradient id="paint2_linear" x1="8" y1="55" x2="33.9151" y2="15.9436" gradientUnits="userSpaceOnUse">
<stop stop-color="#149CE8"/>
<stop offset="1" stop-color="#13539A"/>
</linearGradient>
</defs>
</svg>
