<svg width="44" height="49" viewBox="0 0 44 49" fill="none" xmlns="http://www.w3.org/2000/svg">
<path d="M15.3032 11V7.81915C15.3032 4.46725 18.0204 1.75 21.3723 1.75C24.7242 1.75 27.4415 4.46725 27.4415 7.81915V11" stroke="url(#paint0_linear)" stroke-width="3.5"/>
<path d="M4.55345 12.2878C4.60312 11.6362 5.14634 11.1328 5.79984 11.1328H37.2847C37.9292 11.1328 38.468 11.6227 38.5291 12.2642L41.7322 45.8813C41.8021 46.6151 41.225 47.2498 40.4878 47.2498H3.23738C2.50958 47.2498 1.93568 46.6305 1.99099 45.9048L4.55345 12.2878Z" stroke="url(#paint1_radial)" stroke-width="3.5"/>
<path d="M24.1761 27.1497C22.6088 26.3113 21.9122 25.6406 21.9122 24.8023C21.9122 23.6286 22.9571 22.9579 24.6985 22.9579C26.6141 22.9579 28.3556 23.7963 28.3556 23.7963L29.7487 19.7721C29.7487 19.7721 28.5297 18.7661 24.8727 18.7661C19.6483 18.7661 16.1654 21.6165 16.1654 25.6406C16.1654 27.988 17.9069 29.6648 19.9966 30.8384C21.7381 31.8445 22.4346 32.5152 22.4346 33.5212C22.4346 34.5272 21.5639 35.5332 19.8225 35.5332C17.3844 35.5332 14.9464 34.3595 14.9464 34.3595L13.5532 38.3837C13.5532 38.3837 15.643 39.725 19.3 39.725C24.5244 39.725 28.3556 37.21 28.3556 32.6828C28.3556 30.1678 26.44 28.3234 24.1761 27.1497Z" fill="url(#paint2_linear)"/>
<defs>
<linearGradient id="paint0_linear" x1="36.4894" y1="22.4149" x2="20.8511" y2="-14.0745" gradientUnits="userSpaceOnUse">
<stop stop-color="#13539A"/>
<stop offset="1" stop-color="#149CE8"/>
</linearGradient>
<radialGradient id="paint1_radial" cx="0" cy="0" r="1" gradientUnits="userSpaceOnUse" gradientTransform="translate(43.7872 46.9147) rotate(-137.984) scale(77.8798 179.869)">
<stop stop-color="#13539A"/>
<stop offset="1" stop-color="#149CE8"/>
</radialGradient>
<linearGradient id="paint2_linear" x1="-6.77658" y1="4.17038" x2="57.3405" y2="58.3831" gradientUnits="userSpaceOnUse">
<stop stop-color="#149CE8"/>
<stop offset="1" stop-color="#13539A"/>
</linearGradient>
</defs>
</svg>
