<svg width="87" height="87" viewBox="0 0 87 87" fill="none" xmlns="http://www.w3.org/2000/svg">
<circle r="25.75" transform="matrix(0.706838 -0.707375 -0.707375 -0.706838 43.1337 43.134)" stroke="#1470B9" stroke-width="3.5"/>
<circle r="14.75" transform="matrix(0.706838 -0.707375 -0.707375 -0.706838 43.1337 43.1342)" stroke="#13539A" stroke-width="3.5"/>
<rect x="19.8066" y="62.9419" width="17" height="5" rx="0.5" transform="rotate(-45.0218 19.8066 62.9419)" fill="url(#paint0_linear)"/>
<rect width="17" height="5" rx="0.5" transform="matrix(0.707375 0.706838 0.706838 -0.707375 19.7915 23.3438)" fill="url(#paint1_linear)"/>
<rect x="66.4604" y="23.3262" width="17" height="5" rx="0.5" transform="rotate(134.978 66.4604 23.3262)" fill="url(#paint2_linear)"/>
<rect x="62.9414" y="66.4609" width="17" height="5" rx="0.5" transform="rotate(-135.022 62.9414 66.4609)" fill="url(#paint3_linear)"/>
<defs>
<linearGradient id="paint0_linear" x1="36.4371" y1="65.8586" x2="18.6963" y2="65.5307" gradientUnits="userSpaceOnUse">
<stop stop-color="#13539A"/>
<stop offset="1" stop-color="#149CE8"/>
</linearGradient>
<linearGradient id="paint1_linear" x1="16.6304" y1="2.91667" x2="-1.11034" y2="2.58885" gradientUnits="userSpaceOnUse">
<stop stop-color="#13539A"/>
<stop offset="1" stop-color="#149CE8"/>
</linearGradient>
<linearGradient id="paint2_linear" x1="83.0909" y1="26.2428" x2="65.3501" y2="25.915" gradientUnits="userSpaceOnUse">
<stop stop-color="#13539A"/>
<stop offset="1" stop-color="#149CE8"/>
</linearGradient>
<linearGradient id="paint3_linear" x1="79.5718" y1="69.3776" x2="61.8311" y2="69.0498" gradientUnits="userSpaceOnUse">
<stop stop-color="#13539A"/>
<stop offset="1" stop-color="#149CE8"/>
</linearGradient>
</defs>
</svg>
