<svg width="835" height="733" viewBox="0 0 835 733" fill="none" xmlns="http://www.w3.org/2000/svg">
<path d="M498.085 355.118C425.553 323.266 414.906 209.797 325.601 204.266C186.864 195.673 81.7556 397.473 192.037 534.282C353.021 733.991 644.013 557.711 658.627 446.248C665.703 392.278 570.616 386.969 498.085 355.118Z" fill="url(#paint0_linear)"/>
<circle r="57.3699" transform="matrix(0.512179 0.858879 0.858879 -0.512179 638.657 151.657)" fill="url(#paint1_linear)"/>
<path d="M460 297L833.85 0.999805" stroke="url(#paint2_linear)" stroke-width="2"/>
<circle cx="231.392" cy="501.391" r="164.877" transform="rotate(36.0667 231.392 501.391)" stroke="url(#paint3_linear)" stroke-width="1.5"/>
<rect x="96.9414" y="598" width="10.9078" height="10.9078" rx="1" transform="rotate(4.95302 96.9414 598)" fill="#149CE8"/>
<defs>
<linearGradient id="paint0_linear" x1="47.5272" y1="672.625" x2="541.095" y2="247.304" gradientUnits="userSpaceOnUse">
<stop stop-color="#1496E8" stop-opacity="0.52"/>
<stop offset="0.875994" stop-color="#D7F3F4" stop-opacity="0"/>
</linearGradient>
<linearGradient id="paint1_linear" x1="-127.657" y1="446.377" x2="77.8593" y2="2.32322" gradientUnits="userSpaceOnUse">
<stop stop-color="#1496E8" stop-opacity="0.58"/>
<stop offset="1" stop-color="white"/>
</linearGradient>
<linearGradient id="paint2_linear" x1="834.028" y1="0.85898" x2="460.178" y2="296.859" gradientUnits="userSpaceOnUse">
<stop stop-color="#D7F3F4" stop-opacity="0"/>
<stop offset="0.525791" stop-color="#149CE8"/>
<stop offset="1" stop-color="#D7F3F4" stop-opacity="0"/>
</linearGradient>
<linearGradient id="paint3_linear" x1="172.727" y1="660.527" x2="295.279" y2="338.465" gradientUnits="userSpaceOnUse">
<stop stop-color="#F25254"/>
<stop offset="1" stop-color="#58C5E8" stop-opacity="0.12"/>
</linearGradient>
</defs>
</svg>
