<svg width="67" height="50" viewBox="0 0 67 50" fill="none" xmlns="http://www.w3.org/2000/svg">
<path d="M34.6908 47.2626C43.6564 43.3208 49.75 34.4121 49.75 25C49.75 19.3626 47.9944 14.3207 44.3835 10.1647C41.694 7.06922 38.0303 4.52737 33.4303 2.57851C33.7167 2.52014 34.0102 2.46369 34.3096 2.40949C36.6578 1.98423 39.0488 1.75 40.5 1.75C53.3406 1.75 63.75 12.1594 63.75 25C63.75 27.7786 63.2633 30.4396 62.3721 32.9051L62.2064 33.3633L62.3014 33.8412L64.8381 46.6005L51.6175 45.7102L51.1498 45.6787L50.729 45.8852C47.6442 47.3991 44.174 48.25 40.5 48.25C39.1254 48.25 37.0408 47.9137 35.0877 47.3754C34.9538 47.3385 34.8214 47.3009 34.6908 47.2626Z" stroke="url(#paint0_linear)" stroke-width="3.5"/>
<path d="M4.69856 33.8412L4.79358 33.3633L4.62792 32.9051C3.73669 30.4396 3.25003 27.7786 3.25003 25C3.25003 12.1594 13.6594 1.75 26.5 1.75C39.3407 1.75 49.75 12.1594 49.75 25C49.75 37.8406 39.3407 48.25 26.5 48.25C22.826 48.25 19.3558 47.3991 16.271 45.8852L15.8502 45.6787L15.3825 45.7102L2.1619 46.6004L4.69856 33.8412Z" stroke="url(#paint1_linear)" stroke-width="3.5"/>
<path d="M27.665 14C29.5696 14 31.1008 14.5053 32.2585 15.516C33.4162 16.5267 33.9951 17.9586 33.9951 19.8115C33.9951 21.6832 33.3976 23.115 32.2025 24.107C31.1241 25.0163 29.7004 25.5246 27.9315 25.6318C27.6595 25.6483 27.4409 25.8693 27.4409 26.1418V27.9866C27.4409 28.2628 27.2171 28.4866 26.9409 28.4866H24.2157C23.9396 28.4866 23.7157 28.2628 23.7157 27.9866V23.5682C23.7157 23.292 23.9396 23.0682 24.2157 23.0682H25.3123C26.8247 23.0682 28.0011 22.8436 28.8414 22.3944C29.6817 21.9265 30.1018 21.0749 30.1018 19.8396C30.1018 19.016 29.8684 18.3797 29.4016 17.9305C28.9348 17.4626 28.3092 17.2286 27.525 17.2286C26.666 17.2286 25.9845 17.4813 25.4803 17.9866C25.0873 18.366 24.8475 18.8363 24.7608 19.3975C24.7187 19.6704 24.5002 19.8957 24.2241 19.8957H21.4825C21.2128 19.8957 20.9894 19.6816 21.0004 19.4121C21.0383 18.4832 21.2805 17.6431 21.7271 16.8917C22.2499 15.9933 23.0155 15.2914 24.0238 14.7861C25.0508 14.262 26.2646 14 27.665 14ZM27.2491 30.873C27.5252 30.873 27.7491 31.0968 27.7491 31.373V34.5C27.7491 34.7761 27.5252 35 27.2491 35H23.9917C23.7155 35 23.4917 34.7761 23.4917 34.5V31.373C23.4917 31.0968 23.7155 30.873 23.9917 30.873H27.2491Z" fill="url(#paint2_linear)"/>
<defs>
<linearGradient id="paint0_linear" x1="29.5" y1="32" x2="75" y2="50" gradientUnits="userSpaceOnUse">
<stop stop-color="#13539A"/>
<stop offset="1" stop-color="#149CE8"/>
</linearGradient>
<linearGradient id="paint1_linear" x1="40" y1="24" x2="-3" y2="51" gradientUnits="userSpaceOnUse">
<stop stop-color="#13539A"/>
<stop offset="1" stop-color="#149CE8"/>
</linearGradient>
<linearGradient id="paint2_linear" x1="6.99509" y1="53" x2="32.9102" y2="13.9436" gradientUnits="userSpaceOnUse">
<stop stop-color="#149CE8"/>
<stop offset="1" stop-color="#13539A"/>
</linearGradient>
</defs>
</svg>
