<svg width="53" height="53" viewBox="0 0 53 53" fill="none" xmlns="http://www.w3.org/2000/svg">
<circle r="24.75" transform="matrix(1 0 0 -1 26.5 26.5)" stroke="url(#paint0_radial)" stroke-width="3.5"/>
<path fill-rule="evenodd" clip-rule="evenodd" d="M25.75 8C25.4739 8 25.25 7.77614 25.25 7.5V3C25.25 2.72386 25.4739 2.5 25.75 2.5H28.25C28.5261 2.5 28.75 2.72386 28.75 3V7.5C28.75 7.77614 28.5261 8 28.25 8H25.75Z" fill="#135CA4"/>
<path fill-rule="evenodd" clip-rule="evenodd" d="M25.75 50.5C25.4739 50.5 25.25 50.2761 25.25 50V45.5C25.25 45.2239 25.4739 45 25.75 45H28.25C28.5261 45 28.75 45.2239 28.75 45.5V50C28.75 50.2761 28.5261 50.5 28.25 50.5H25.75Z" fill="#1478C1"/>
<path fill-rule="evenodd" clip-rule="evenodd" d="M8.5 28.25C8.5 28.5261 8.27614 28.75 8 28.75H3.5C3.22386 28.75 3 28.5261 3 28.25V25.75C3 25.4739 3.22386 25.25 3.5 25.25H8C8.27614 25.25 8.5 25.4739 8.5 25.75V28.25Z" fill="#135DA5"/>
<path fill-rule="evenodd" clip-rule="evenodd" d="M50.5 28.25C50.5 28.5261 50.2761 28.75 50 28.75H45.5C45.2239 28.75 45 28.5261 45 28.25V25.75C45 25.4739 45.2239 25.25 45.5 25.25H50C50.2761 25.25 50.5 25.4739 50.5 25.75V28.25Z" fill="#147BC5"/>
<path d="M16.045 16.5904C15.8462 16.2377 16.2371 15.8468 16.5898 16.0455L30.6529 23.9704L23.9699 30.6535L16.045 16.5904Z" fill="url(#paint1_linear)"/>
<path d="M38.6442 38.2104C38.8428 38.5645 38.4485 38.9551 38.0963 38.7531L23.9732 30.6535L30.6559 23.9708L38.6442 38.2104Z" fill="url(#paint2_linear)"/>
<defs>
<radialGradient id="paint0_radial" cx="0" cy="0" r="1" gradientUnits="userSpaceOnUse" gradientTransform="translate(12.5526 39.75) rotate(-39.2894) scale(69.3803)">
<stop offset="0.111674" stop-color="#13539A"/>
<stop offset="1" stop-color="#149CE8"/>
</radialGradient>
<linearGradient id="paint1_linear" x1="27.1827" y1="27.1832" x2="6.84683" y2="6.84727" gradientUnits="userSpaceOnUse">
<stop stop-color="#13539A"/>
<stop offset="1" stop-color="#149CE8"/>
</linearGradient>
<linearGradient id="paint2_linear" x1="27.3827" y1="27.5042" x2="47.9396" y2="48.0612" gradientUnits="userSpaceOnUse">
<stop stop-color="#13539A"/>
<stop offset="1" stop-color="#149CE8"/>
</linearGradient>
</defs>
</svg>
