<svg width="57" height="46" viewBox="0 0 57 46" fill="none" xmlns="http://www.w3.org/2000/svg">
<path d="M40 37H34.122C33.0174 37 32.122 36.1046 32.122 35V23M40 9H34.122C33.0174 9 32.122 9.89543 32.122 11V23M32.122 23H23" stroke="url(#paint0_linear)" stroke-width="3.5"/>
<mask id="path-2-inside-1" fill="white">
<rect y="11" width="23" height="23" rx="2"/>
</mask>
<rect y="11" width="23" height="23" rx="2" stroke="#13539A" stroke-width="7" mask="url(#path-2-inside-1)"/>
<mask id="path-3-inside-2" fill="white">
<rect x="40" width="17" height="17" rx="2"/>
</mask>
<rect x="40" width="17" height="17" rx="2" stroke="url(#paint1_radial)" stroke-width="7" mask="url(#path-3-inside-2)"/>
<mask id="path-4-inside-3" fill="white">
<rect x="40" y="29" width="17" height="17" rx="2"/>
</mask>
<rect x="40" y="29" width="17" height="17" rx="2" stroke="url(#paint2_radial)" stroke-width="7" mask="url(#path-4-inside-3)"/>
<defs>
<linearGradient id="paint0_linear" x1="18.5" y1="23" x2="55.8954" y2="27.755" gradientUnits="userSpaceOnUse">
<stop stop-color="#13539A"/>
<stop offset="1" stop-color="#149CE8"/>
</linearGradient>
<radialGradient id="paint1_radial" cx="0" cy="0" r="1" gradientUnits="userSpaceOnUse" gradientTransform="translate(8.5 9) scale(58.5 149.28)">
<stop stop-color="#13539A"/>
<stop offset="1" stop-color="#149CE8"/>
</radialGradient>
<radialGradient id="paint2_radial" cx="0" cy="0" r="1" gradientUnits="userSpaceOnUse" gradientTransform="translate(8.5 38) scale(58.5 149.28)">
<stop stop-color="#13539A"/>
<stop offset="1" stop-color="#149CE8"/>
</radialGradient>
</defs>
</svg>
