<svg width="59" height="49" viewBox="0 0 59 49" fill="none" xmlns="http://www.w3.org/2000/svg">
<path d="M20 19.9408L28.6808 28.5872L42.3219 15" stroke="url(#paint0_linear)" stroke-width="3.5"/>
<path d="M23 1.75H36C47.4599 1.75 56.75 11.0401 56.75 22.5C56.75 28.3736 54.8773 32.8323 53.4348 35.7174C53.4285 35.7299 53.4167 35.7516 53.4008 35.7809C53.3118 35.9449 53.0933 36.3473 52.9847 36.7223C52.8385 37.227 52.8176 37.7698 52.8232 38.4122C52.83 39.1924 52.8874 40.4366 52.9832 42.5101C53.0291 43.5038 53.0837 44.688 53.1459 46.1028C48.1197 44.5755 45.5131 43.856 44.052 43.5239C43.2412 43.3396 42.7078 43.2565 42.271 43.2356C42.0436 43.2247 41.8669 43.2318 41.7316 43.2393C41.6971 43.2412 41.6691 43.2428 41.6458 43.2442C41.589 43.2475 41.5593 43.2492 41.527 43.2498C40.5168 43.2123 39.4865 43.2228 38.2685 43.2353C37.582 43.2424 36.8358 43.25 36 43.25H23C11.5401 43.25 2.25 33.9599 2.25 22.5C2.25 11.0401 11.5401 1.75 23 1.75Z" stroke="url(#paint1_radial)" stroke-width="3.5"/>
<defs>
<linearGradient id="paint0_linear" x1="-39.4748" y1="22.5902" x2="67.6292" y2="28.8744" gradientUnits="userSpaceOnUse">
<stop stop-color="#13539A"/>
<stop offset="1" stop-color="#149CE8"/>
</linearGradient>
<radialGradient id="paint1_radial" cx="0" cy="0" r="1" gradientUnits="userSpaceOnUse" gradientTransform="translate(35 26) rotate(-140.87) scale(76.0592 90.9574)">
<stop stop-color="#13539A"/>
<stop offset="1" stop-color="#149CE8"/>
</radialGradient>
</defs>
</svg>
