<svg width="64" height="55" viewBox="0 0 64 55" fill="none" xmlns="http://www.w3.org/2000/svg">
<path fill-rule="evenodd" clip-rule="evenodd" d="M31 21C30.7239 21 30.5 20.7761 30.5 20.5L30.5 0.5C30.5 0.223858 30.7239 -9.78512e-09 31 -2.18557e-08L33 -1.09278e-07C33.2761 -1.21349e-07 33.5 0.223858 33.5 0.5L33.5 20.5C33.5 20.7761 33.2761 21 33 21L31 21Z" fill="url(#paint0_linear)"/>
<path d="M43.5126 7.23617C43.7222 7.34962 43.7222 7.65038 43.5126 7.76383L32.4428 13.7555C32.2429 13.8637 32 13.719 32 13.4917V1.50832C32 1.28103 32.2429 1.13629 32.4428 1.24448L43.5126 7.23617Z" fill="url(#paint1_linear)"/>
<path fill-rule="evenodd" clip-rule="evenodd" d="M31.8272 19.2968C31.9043 19.1643 32.0957 19.1643 32.1728 19.2968L44.0104 39.6271C44.0845 39.7544 44.2661 39.7606 44.3488 39.6387L49.8461 31.5325C49.93 31.4089 50.1148 31.4174 50.1868 31.5483L61.8367 52.7035C61.9101 52.8368 61.8137 53 61.6615 53H50.0681H13.9319H2.33846C2.18629 53 2.08986 52.8368 2.16327 52.7035L13.8132 31.5483C13.8852 31.4174 14.07 31.4089 14.1539 31.5325L19.6512 39.6387C19.7339 39.7606 19.9155 39.7544 19.9896 39.6271L31.8272 19.2968Z" stroke="url(#paint2_linear)" stroke-width="3.5"/>
<defs>
<linearGradient id="paint0_linear" x1="32.5" y1="-8.81881e-08" x2="31.6628" y2="82.5698" gradientUnits="userSpaceOnUse">
<stop stop-color="#149CE8"/>
<stop offset="1" stop-color="#13539A"/>
</linearGradient>
<linearGradient id="paint1_linear" x1="45.1429" y1="7" x2="-81.7111" y2="8.30608" gradientUnits="userSpaceOnUse">
<stop stop-color="#149CE8"/>
<stop offset="1" stop-color="#13539A"/>
</linearGradient>
<linearGradient id="paint2_linear" x1="32" y1="6.5" x2="32" y2="53" gradientUnits="userSpaceOnUse">
<stop stop-color="#149CE8"/>
<stop offset="1" stop-color="#13539A"/>
</linearGradient>
</defs>
</svg>
