<svg width="52" height="46" viewBox="0 0 52 46" fill="none" xmlns="http://www.w3.org/2000/svg">
<g clip-path="url(#clip0)">
<path d="M8 0V25.5" stroke="url(#paint0_linear)" stroke-width="4"/>
<path d="M44 0V25.5" stroke="url(#paint1_linear)" stroke-width="4"/>
<path d="M26 46L26 20" stroke="url(#paint2_linear)" stroke-width="4"/>
<path d="M26 3.49691e-07L26 10M26 10L34 10M26 10L18 10" stroke="url(#paint3_linear)" stroke-width="4"/>
<path d="M8 46L8 36M8 36L16 36M8 36L4.37114e-07 36" stroke="url(#paint4_linear)" stroke-width="4"/>
<path d="M44 46L44 36M44 36L52 36M44 36L36 36" stroke="url(#paint5_linear)" stroke-width="4"/>
</g>
<defs>
<linearGradient id="paint0_linear" x1="8.5" y1="0" x2="8.5" y2="25.5" gradientUnits="userSpaceOnUse">
<stop stop-color="#1478C2"/>
<stop offset="1" stop-color="#13539A"/>
</linearGradient>
<linearGradient id="paint1_linear" x1="44.5" y1="0" x2="44.5" y2="25.5" gradientUnits="userSpaceOnUse">
<stop stop-color="#1478C2"/>
<stop offset="1" stop-color="#13539A"/>
</linearGradient>
<linearGradient id="paint2_linear" x1="25.5" y1="46" x2="25.5" y2="20" gradientUnits="userSpaceOnUse">
<stop stop-color="#1478C2"/>
<stop offset="1" stop-color="#13539A"/>
</linearGradient>
<linearGradient id="paint3_linear" x1="25.5" y1="-3" x2="25.5" y2="10" gradientUnits="userSpaceOnUse">
<stop stop-color="#1478C2"/>
<stop offset="1" stop-color="#13539A"/>
</linearGradient>
<linearGradient id="paint4_linear" x1="7.5" y1="49" x2="7.5" y2="36" gradientUnits="userSpaceOnUse">
<stop stop-color="#1478C2"/>
<stop offset="1" stop-color="#13539A"/>
</linearGradient>
<linearGradient id="paint5_linear" x1="43.5" y1="49" x2="43.5" y2="36" gradientUnits="userSpaceOnUse">
<stop stop-color="#1478C2"/>
<stop offset="1" stop-color="#13539A"/>
</linearGradient>
<clipPath id="clip0">
<rect width="52" height="46" fill="white"/>
</clipPath>
</defs>
</svg>
