<svg width="53" height="52" viewBox="0 0 53 52" fill="none" xmlns="http://www.w3.org/2000/svg">
<path d="M36.4615 10C32.1538 10 31.6154 10.5333 26.7692 10.5333C22.4615 10.5333 21.9231 10 17.0769 10C12.2308 10 2 16.9333 2 30.2667C2 43.0667 13.3077 50 17.0769 50C20.8462 50 22.4615 49.4667 26.7692 49.4667C31.0769 49.4667 32.6923 50 36.4615 50C40.2308 50 51 44.1333 51 30.2667C51 16.4 40.2308 10 36.4615 10Z" stroke="url(#paint0_linear)" stroke-width="3.5"/>
<path d="M23 1L26.5 10.5" stroke="url(#paint1_linear)" stroke-width="3.5"/>
<path d="M19.4208 18.5802C16.2261 19.9503 12.8706 23.8651 11.9129 27.4717" stroke="url(#paint2_linear)" stroke-width="3.5"/>
<defs>
<linearGradient id="paint0_linear" x1="9.5" y1="13" x2="44.5" y2="45" gradientUnits="userSpaceOnUse">
<stop stop-color="#1360A8"/>
<stop offset="1" stop-color="#147BC4"/>
</linearGradient>
<linearGradient id="paint1_linear" x1="24.75" y1="1" x2="26.5" y2="11" gradientUnits="userSpaceOnUse">
<stop stop-color="#1471BB"/>
<stop offset="1" stop-color="#1469B1"/>
</linearGradient>
<linearGradient id="paint2_linear" x1="16.635" y1="18.3385" x2="11.9129" y2="35.3369" gradientUnits="userSpaceOnUse">
<stop stop-color="#1367AF"/>
<stop offset="1" stop-color="#148BD6"/>
</linearGradient>
</defs>
</svg>
