<svg width="758" height="735" viewBox="0 0 758 735" fill="none" xmlns="http://www.w3.org/2000/svg">
<circle cx="609.185" cy="142.185" r="57.3699" transform="rotate(-155.114 609.185 142.185)" fill="url(#paint0_linear)"/>
<circle r="147.209" transform="matrix(-0.776069 -0.630649 -0.630649 0.776069 548.682 208.681)" stroke="url(#paint1_linear)" stroke-width="2"/>
<rect x="643.271" y="95" width="10.9078" height="10.9078" rx="1" transform="rotate(1.42241 643.271 95)" fill="#EE5558"/>
<path d="M650 99L204 544" stroke="url(#paint2_linear)" stroke-width="1.5"/>
<path d="M396.5 607C508.5 590.803 575.111 639.21 629.907 625.583C713.918 604.69 660.013 388.893 527.452 302.698C402.563 221.492 230.501 238 111.647 354.324C-72.7 534.748 22.5834 710.783 140.5 706C236.351 702.112 268 625.583 396.5 607Z" fill="url(#paint3_linear)"/>
<defs>
<linearGradient id="paint0_linear" x1="565.598" y1="249.653" x2="629.675" y2="87.1384" gradientUnits="userSpaceOnUse">
<stop stop-color="#C6F3F4" stop-opacity="0.58"/>
<stop offset="1" stop-color="white"/>
</linearGradient>
<linearGradient id="paint1_linear" x1="151.948" y1="294.415" x2="148.944" y2="1.93229e-05" gradientUnits="userSpaceOnUse">
<stop stop-color="#149CE8"/>
<stop offset="1" stop-color="#58C5E8" stop-opacity="0.12"/>
</linearGradient>
<linearGradient id="paint2_linear" x1="643.393" y1="99.6593" x2="201.051" y2="552.245" gradientUnits="userSpaceOnUse">
<stop stop-color="#EE5558"/>
<stop offset="1" stop-color="#F25254" stop-opacity="0"/>
</linearGradient>
<linearGradient id="paint3_linear" x1="743" y1="531.5" x2="0.999989" y2="309.5" gradientUnits="userSpaceOnUse">
<stop stop-color="#149CE8" stop-opacity="0.13"/>
<stop offset="1" stop-color="#D7F3F4" stop-opacity="0"/>
</linearGradient>
</defs>
</svg>
