<svg width="75" height="52" viewBox="0 0 75 52" fill="none" xmlns="http://www.w3.org/2000/svg">
<path fill-rule="evenodd" clip-rule="evenodd" d="M57.3859 45.7656C57.3318 45.7604 57.2773 45.7701 57.2282 45.7935L56.3934 46.192C53.4843 47.5807 50.2255 48.36 46.7745 48.36C34.4254 48.36 24.4145 38.3491 24.4145 26C24.4145 13.6509 34.4254 3.64 46.7745 3.64C59.1236 3.64 69.1345 13.6509 69.1345 26C69.1345 28.6746 68.6665 31.2318 67.811 33.5995L67.4935 34.478C67.4749 34.5297 67.4707 34.5854 67.4816 34.6392L69.8834 46.5675C69.9231 46.7648 69.7612 46.9445 69.5609 46.9254L57.3859 45.7656ZM74.0972 51.014C74.2975 51.0331 74.4595 50.8534 74.4197 50.6562L71.2509 34.9187C71.2401 34.8649 71.2442 34.8092 71.2627 34.7575C72.2414 32.0211 72.7745 29.0728 72.7745 26C72.7745 11.6406 61.1339 0 46.7745 0C32.4151 0 20.7745 11.6406 20.7745 26C20.7745 40.3594 32.4151 52 46.7745 52C50.75 52 54.5171 51.1077 57.8865 49.5125C57.9357 49.4893 57.9901 49.4796 58.0443 49.4848L74.0972 51.014Z" fill="url(#paint0_linear)"/>
<path fill-rule="evenodd" clip-rule="evenodd" d="M27.8647 0C42.2241 0 53.8647 11.6406 53.8647 26C53.8647 40.3594 42.2241 52 27.8647 52C23.8596 52 20.0661 51.0944 16.6776 49.4769L0.139648 51.0524L3.40482 34.8365C2.40806 32.0779 1.86469 29.1024 1.86469 26C1.86469 11.6406 13.5053 0 27.8647 0Z" fill="white"/>
<path fill-rule="evenodd" clip-rule="evenodd" d="M17.2533 45.7656C17.3074 45.7604 17.3619 45.7701 17.4109 45.7935L18.2457 46.192C21.1549 47.5807 24.4137 48.36 27.8647 48.36C40.2138 48.36 50.2247 38.3491 50.2247 26C50.2247 13.6509 40.2138 3.64 27.8647 3.64C15.5156 3.64 5.50469 13.6509 5.50469 26C5.50469 28.6746 5.9727 31.2318 6.8282 33.5995L7.14564 34.478C7.16429 34.5297 7.16843 34.5854 7.15759 34.6392L4.75575 46.5675C4.71603 46.7648 4.87797 46.9445 5.0783 46.9254L17.2533 45.7656ZM0.541971 51.014C0.341641 51.0331 0.179701 50.8534 0.219424 50.6562L3.38826 34.9187C3.39909 34.8649 3.39493 34.8092 3.37644 34.7575C2.39775 32.0211 1.86469 29.0728 1.86469 26C1.86469 11.6406 13.5053 0 27.8647 0C42.2241 0 53.8647 11.6406 53.8647 26C53.8647 40.3594 42.2241 52 27.8647 52C23.8892 52 20.122 51.1077 16.7526 49.5125C16.7035 49.4893 16.649 49.4796 16.5949 49.4848L0.541971 51.014Z" fill="url(#paint1_linear)"/>
<path fill-rule="evenodd" clip-rule="evenodd" d="M37.7605 20.6648C37.8936 20.7634 37.9216 20.9513 37.823 21.0845L27.7505 34.6823C27.6444 34.8255 27.4375 34.8452 27.3063 34.7244L18.8872 26.9751C18.7653 26.8629 18.7575 26.6731 18.8697 26.5512L20.9285 24.3144C21.0407 24.1925 21.2305 24.1847 21.3524 24.2969L26.7918 29.3036C26.923 29.4244 27.1299 29.4048 27.2361 29.2615L34.898 18.9178C34.9967 18.7847 35.1845 18.7567 35.3177 18.8553L37.7605 20.6648Z" fill="url(#paint2_linear)"/>
<defs>
<linearGradient id="paint0_linear" x1="79.1795" y1="55.64" x2="55.2594" y2="32.7602" gradientUnits="userSpaceOnUse">
<stop stop-color="#149CE8"/>
<stop offset="1" stop-color="#13539A"/>
</linearGradient>
<linearGradient id="paint1_linear" x1="-1.94035" y1="54.6" x2="21.4598" y2="31.2002" gradientUnits="userSpaceOnUse">
<stop stop-color="#149CE8"/>
<stop offset="1" stop-color="#13539A"/>
</linearGradient>
<linearGradient id="paint2_linear" x1="28.2191" y1="-2.07993" x2="27.6848" y2="52.2481" gradientUnits="userSpaceOnUse">
<stop stop-color="#149CE8"/>
<stop offset="1" stop-color="#13539A"/>
</linearGradient>
</defs>
</svg>
