<svg width="27" height="38" viewBox="0 0 27 38" fill="none" xmlns="http://www.w3.org/2000/svg">
<path d="M26.9508 7.44873L24.4998 34.8551L13.4824 37.9037L2.49534 34.8593L0.046875 7.44873H26.9508Z" fill="#E44D26"/>
<path d="M13.5 35.5739L22.4026 33.1104L24.497 9.69043H13.5V35.5739Z" fill="#F16529"/>
<path d="M8.73361 16.4135H13.4983V13.0518H5.05273L5.13331 13.9537L5.96117 23.2179H13.4983V19.8561H9.04144L8.73361 16.4135ZM9.49271 24.8988H6.11166L6.58349 30.1773L13.4828 32.0889L13.4983 32.0847V28.587L13.4835 28.5909L9.73252 27.58L9.49271 24.8988Z" fill="#EBEBEB"/>
<path d="M2.55078 0H4.2624V1.68789H5.82816V0H7.53988V5.11137H5.82827V3.39979H4.2625V5.11137H2.55089V0H2.55078ZM9.79061 1.69505H8.28401V0H13.0101V1.69505H11.5025V5.11137H9.79093V1.69505H9.79082H9.79061ZM13.7601 0H15.5448L16.6427 1.796L17.7394 0H19.5249V5.11137H17.8202V2.57789L16.6427 4.39526H16.6131L15.4348 2.57789V5.11137H13.7601V0ZM20.3767 0H22.0888V3.4219H24.4958V5.11137H20.3766V0H20.3767Z" fill="black"/>
<path d="M13.4864 23.2179H17.6339L17.2428 27.5779L13.4863 28.5899V32.0873L20.3911 30.1773L20.4417 29.6093L21.2333 20.7588L21.3155 19.8561H13.4864V23.2179ZM13.4864 16.4053V16.4135H21.6219L21.6894 15.658L21.843 13.9537L21.9234 13.0518H13.4864V16.4054V16.4053Z" fill="white"/>
</svg>
