<svg width="43" height="30" viewBox="0 0 43 30" fill="none" xmlns="http://www.w3.org/2000/svg">
<path d="M42.8275 14.0173C42.5208 13.7048 38.5854 8.65302 37.9209 7.81974C37.2054 6.98645 36.8987 7.14269 36.4387 7.19477C35.9787 7.24685 31.021 8.13222 30.4588 8.1843C29.8966 8.28846 29.5388 8.49678 29.8966 9.01759C30.2033 9.48631 33.4743 14.1736 34.1899 15.2672L21.1568 18.4442L10.8325 0.78887C10.4236 0.163904 10.3214 -0.044418 9.40141 0.00766247C8.48143 0.059743 1.27488 0.684709 0.763781 0.684709C0.252679 0.736789 -0.309533 0.945111 0.201569 2.19504C0.712671 3.44497 8.89031 21.3607 9.09475 21.8815C9.29919 22.4023 9.91251 23.2356 11.2925 22.9231C12.7236 22.5585 17.6302 21.2565 20.339 20.5274C21.7701 23.1314 24.6323 28.4436 25.1945 29.2248C25.91 30.2664 26.4211 30.0581 27.4944 29.7456C28.3633 29.4852 40.8853 24.9021 41.4475 24.6417C42.0097 24.3813 42.3675 24.2251 41.9586 23.6522C41.652 23.2356 38.3809 18.7046 36.6432 16.3609C37.8187 16.0485 42.0608 14.9027 42.5208 14.7464C43.0319 14.5902 43.1342 14.3298 42.8275 14.0173ZM19.1635 18.965C19.0101 19.017 11.7014 20.7878 11.3436 20.8919C10.9347 20.9961 10.9347 20.944 10.9347 20.7878C10.8325 20.6315 2.24598 2.50753 2.09265 2.2992C1.99043 2.09088 1.99043 1.88256 2.09265 1.88256C2.19487 1.88256 8.99253 1.25759 9.19697 1.25759C9.45252 1.25759 9.40141 1.30967 9.50363 1.46592C9.50363 1.46592 19.0612 18.2879 19.2146 18.5483C19.419 18.8087 19.3168 18.9129 19.1635 18.965ZM39.7098 22.871C39.812 23.0793 39.9653 23.1835 39.5564 23.2876C39.1987 23.4439 27.2389 27.5582 26.9833 27.6624C26.7278 27.7666 26.5744 27.8186 26.2678 27.3499C25.9611 26.8812 22.0767 20.0587 22.0767 20.0587L34.8032 16.6734C35.1099 16.5693 35.2121 16.5172 35.4165 16.8297C35.621 17.1942 39.6076 22.7148 39.7098 22.871ZM40.5275 13.7048C40.2209 13.7569 35.5698 14.9548 35.5698 14.9548L31.7366 9.64255C31.6344 9.48631 31.5321 9.33007 31.7877 9.27799C32.0432 9.22591 36.3876 8.4447 36.5921 8.39262C36.7965 8.34054 36.9498 8.28846 37.2054 8.65302C37.4609 8.96551 40.732 13.2361 40.8853 13.3923C41.0386 13.5486 40.8342 13.6528 40.5275 13.7048Z" fill="#FB503B"/>
</svg>
