<svg width="35" height="35" viewBox="0 0 35 35" fill="none" xmlns="http://www.w3.org/2000/svg">
<g clip-path="url(#clip0)">
<path d="M0 0H34.9667V34.9667H0V0Z" fill="#F7DF1E"/>
<path d="M9.1935 29.2207L11.8693 27.6013C12.3856 28.5166 12.8552 29.2911 13.9816 29.2911C15.0613 29.2911 15.7422 28.8687 15.7422 27.2259V16.0532H19.0282V27.2723C19.0282 30.6757 17.0331 32.2249 14.1224 32.2249C11.4938 32.2249 9.96795 30.8635 9.19336 29.2205L9.1935 29.2207ZM20.813 28.8686L23.4885 27.3196C24.1928 28.4698 25.1083 29.3147 26.7277 29.3147C28.0893 29.3147 28.9575 28.6339 28.9575 27.695C28.9575 26.5684 28.0655 26.1693 26.5633 25.5123L25.742 25.1599C23.3713 24.151 21.7987 22.8834 21.7987 20.2077C21.7987 17.7431 23.6764 15.8652 26.6105 15.8652C28.6994 15.8652 30.2016 16.593 31.2812 18.4942L28.7227 20.1373C28.1592 19.1281 27.5492 18.7291 26.6103 18.7291C25.6479 18.7291 25.0376 19.3394 25.0376 20.1373C25.0376 21.1231 25.6479 21.5223 27.0562 22.1326L27.8776 22.4846C30.6708 23.6818 32.2434 24.9022 32.2434 27.6482C32.2434 30.6059 29.9197 32.2253 26.798 32.2253C23.7467 32.2253 21.7751 30.7701 20.8128 28.8687" fill="black"/>
</g>
<defs>
<clipPath id="clip0">
<rect width="34.9667" height="34.9667" fill="white"/>
</clipPath>
</defs>
</svg>
