<svg width="79" height="18" viewBox="0 0 79 18" fill="none" xmlns="http://www.w3.org/2000/svg">
<g clip-path="url(#clip0)">
<path fill-rule="evenodd" clip-rule="evenodd" d="M75.5365 1.3418L78.8392 1.36011C78.8392 1.36011 72.6989 9.73383 72.1975 10.4163C72.0347 10.6372 71.7873 10.8756 71.6618 11.171C71.3447 11.9137 71.019 13.5428 71.019 13.5428L67.9971 13.5581C67.9971 13.5581 68.4674 11.8598 68.448 10.9553C68.431 10.1652 68.0301 9.376 67.8053 8.58354C67.5781 7.7813 67.2695 6.21157 67.2695 6.21157H70.3764L70.8049 7.93662L75.5365 1.3418Z" fill="#1A1918"/>
<path fill-rule="evenodd" clip-rule="evenodd" d="M69.2822 3.10777C69.8917 3.47754 70.2658 5.51744 70.2658 5.51744C70.2658 5.51744 67.0766 5.56477 65.3411 5.56477H63.8413L62.02 13.5428H59.2348C59.2348 13.5428 60.9682 4.8727 61.3774 3.3008C61.51 2.79184 62.2859 2.8792 63.596 2.8792H65.6881C67.0391 2.8792 68.6181 2.70556 69.2822 3.10777ZM56.3156 6.99328C56.3156 6.99328 56.4024 6.48122 56.0211 5.88815C55.6953 5.38259 55.3945 5.26497 54.5374 5.23797C52.1174 5.16147 52.1645 6.96628 52.1645 6.96628L56.3156 6.99328ZM58.9402 4.92639C59.2948 6.21385 58.6188 9.23894 58.6188 9.23894C58.6188 9.23894 55.0889 9.17966 53.1554 9.23894C52.5542 9.2574 51.8347 9.17315 51.6556 9.45463C51.4039 9.84908 51.7477 10.4563 52.0391 10.7128C52.3745 11.0081 53.0278 11.0417 53.2626 11.0717C54.8319 11.2723 58.1164 11.1235 58.1164 11.1235L57.5474 13.659C57.5474 13.659 52.9059 13.8933 50.5844 13.3356C50.126 13.2258 49.6963 13.0037 49.4059 12.6889C49.3267 12.6028 49.2579 12.4853 49.183 12.3838C49.1231 12.3028 48.9486 12.0367 48.8703 11.8263C48.34 10.4043 48.9324 7.68008 49.5131 6.22021C49.5805 6.05108 49.6651 5.83647 49.7542 5.65415C49.8655 5.42682 49.9598 5.17016 50.0487 5.03423C50.1085 4.94051 50.1827 4.88015 50.2448 4.7917C50.3165 4.68711 50.4 4.58578 50.4772 4.49532C50.6915 4.24518 50.9347 4.06828 51.2272 3.84856C52.1944 3.11956 53.9448 2.55365 56.0478 2.77027C56.8395 2.8522 58.0353 3.13679 58.6188 3.95625C58.7752 4.17504 58.8524 4.60953 58.9402 4.92654V4.92639ZM46.1654 2.86927L48.8661 2.85328C48.8661 2.85328 47.3609 10.0389 46.5939 13.5428H43.487C41.3158 13.5428 39.3821 13.8134 38.5594 12.249C37.7613 10.73 38.523 8.23203 38.8807 6.5349C39.1336 5.33387 39.6661 2.87904 39.6661 2.87904L42.4643 2.85328C42.4643 2.85328 41.6736 6.67518 41.3446 8.58349C41.2268 9.26702 40.9838 9.91068 41.2376 10.4161C41.4786 10.8971 41.8161 10.9316 42.8444 10.9553C43.1702 10.9631 44.2371 10.9553 44.2371 10.9553L46.1654 2.86927ZM33.5244 8.04427C33.8072 7.03316 34.2197 5.93672 34.1672 5.02554C34.1105 4.05106 33.2985 3.16378 32.7746 2.97727C31.1967 2.41663 29.7194 3.20041 29.1323 3.83972C28.3728 4.66772 28.1156 5.6349 27.8467 6.96644C27.6465 7.95489 27.4825 8.99842 27.8467 9.76932C28.4915 11.1322 30.5024 10.8346 32.6675 10.8476C32.9888 9.98082 33.2544 9.00727 33.5244 8.04427ZM37.2739 4.05541C37.5823 6.31285 36.3988 8.80461 35.5834 10.9714C36.4148 11.047 37.1433 10.9598 37.1958 11.0222C37.2503 11.103 36.6385 13.6086 36.4253 13.6151C35.7655 13.6323 33.5792 13.6506 32.6675 13.6506C29.6924 13.6506 26.9094 13.8457 25.4901 12.357C24.9137 11.7521 24.5152 10.7148 24.4187 9.98501C24.258 8.76675 24.4594 7.42544 24.7401 6.31953C24.9941 5.32099 25.3196 4.37878 25.8114 3.51618C27.0616 1.32018 29.2362 -0.309904 32.8816 0.0663891C33.5887 0.13963 34.6042 0.451217 35.2385 0.820992C35.2823 0.846906 35.4357 0.969803 35.4709 0.991372C36.328 1.54022 37.1089 2.85003 37.2739 4.05541ZM24.1112 2.8823C23.9313 3.70704 23.7513 4.64196 23.5617 5.45692H20.5622C20.7945 4.55351 20.9724 3.65537 21.205 2.86942C22.1648 2.86942 23.0572 2.8823 24.1114 2.8823H24.1112ZM20.455 6.21168H23.3475C22.9693 8.3183 22.2204 11.7164 21.6334 14.0819C21.266 15.5622 21.0207 16.6424 20.0265 17.424C19.9375 17.4941 19.8862 17.4607 19.8122 17.5318C19.629 17.7076 18.7816 17.9115 18.3126 17.963C17.5498 18.0462 16.6875 17.9739 15.75 17.9545C15.9953 17.0522 16.2728 15.9686 16.4915 15.1599C18.7765 15.4382 18.8343 13.2646 19.2767 11.171C19.5326 9.96127 20.3084 6.69675 20.455 6.21168Z" fill="#1A1918"/>
<path fill-rule="evenodd" clip-rule="evenodd" d="M13.706 11.7096L13.644 11.8712C12.5879 13.9412 10.7162 15.2112 8.04662 15.2672C6.79863 15.2931 5.60955 14.9708 4.83276 14.6204C3.15645 13.8624 1.74641 12.4567 0.976408 10.9548C-0.128182 8.80177 -0.32739 5.80679 1.96937 3.56982C2.00483 3.56982 1.69075 4.05489 1.72622 4.05489L1.663 4.26189C0.00796473 9.47662 5.10706 13.9456 10.0638 13.4344C11.2551 13.3116 12.7741 12.655 13.706 11.7096Z" fill="#21609B"/>
<path fill-rule="evenodd" clip-rule="evenodd" d="M10.7057 9.55402C11.9528 9.56255 13.2553 8.976 14.0267 8.1525C13.3519 9.87647 11.3979 10.9846 8.77762 10.6322C6.58355 10.3367 4.49355 8.11479 4.27831 5.88838C4.12088 4.26807 4.68197 3.30103 5.60662 2.12793C5.2853 2.74148 5.16519 3.2146 5.13528 3.51641C4.78404 7.02145 7.91741 9.53555 10.7057 9.55402Z" fill="#21609B"/>
<path fill-rule="evenodd" clip-rule="evenodd" d="M13.9028 5.2003C13.709 5.64782 12.5928 6.49289 12.0999 6.59856C10.148 7.01706 8.89804 6.08556 8.24322 5.02558C8.14592 4.8673 7.96599 4.43499 7.93376 4.32498C7.67982 3.45601 7.79654 2.1417 8.55406 1.46143C8.32586 2.10834 8.29256 2.85968 8.41267 3.34817C8.48544 3.64346 8.70716 4.1591 8.92904 4.48341C9.3327 5.07415 9.5888 5.21768 10.1073 5.53144C10.3409 5.67265 10.5915 5.78593 10.6997 5.81696C11.1914 5.96267 12.2295 6.34641 13.9029 5.2003" fill="#21609B"/>
</g>
<defs>
<clipPath id="clip0">
<rect width="79" height="18" fill="white"/>
</clipPath>
</defs>
</svg>
