<svg width="36" height="36" viewBox="0 0 36 36" fill="none" xmlns="http://www.w3.org/2000/svg">
<g clip-path="url(#clip0)">
<path d="M17.9695 26.7979C25.9341 37.6553 33.7285 23.7675 33.717 15.4158C33.7036 5.54164 23.6953 0.0229492 17.963 0.0229492C8.7622 0.0228086 0 7.62682 0 18.0308C0 29.595 10.0441 36.0004 17.963 36.0004C16.171 35.7424 10.1991 34.4629 10.119 20.7079C10.0648 11.405 13.1536 7.68814 17.9501 9.32318C18.0575 9.36298 23.2407 11.4077 23.2407 18.0869C23.2407 24.7379 17.9695 26.7978 17.9695 26.7978V26.7979Z" fill="url(#paint0_linear)"/>
<path d="M17.7097 9.31508C12.447 7.50116 6 11.8387 6 20.5266C6 34.7124 16.5121 35.9999 17.7865 35.9999C26.9873 35.9999 35.7495 28.3958 35.7495 17.9919C35.7495 6.42777 25.7054 0.0223041 17.7865 0.0223041C19.9798 -0.281446 29.6081 2.39605 29.6081 15.5555C29.6081 24.1372 22.4188 28.8091 17.7428 26.8131C17.6353 26.7733 12.452 24.7286 12.452 18.0493C12.452 11.3982 17.7097 9.31508 17.7097 9.31508Z" fill="url(#paint1_linear)"/>
</g>
<defs>
<linearGradient id="paint0_linear" x1="5.32425" y1="5.32495" x2="32.216" y2="28.9432" gradientUnits="userSpaceOnUse">
<stop/>
<stop offset="1" stop-color="white"/>
</linearGradient>
<linearGradient id="paint1_linear" x1="30.4351" y1="30.6853" x2="1.32866" y2="10.8088" gradientUnits="userSpaceOnUse">
<stop/>
<stop offset="1" stop-color="white"/>
</linearGradient>
<clipPath id="clip0">
<rect width="36" height="36" fill="white"/>
</clipPath>
</defs>
</svg>
