<svg width="41" height="41" viewBox="0 0 41 41" fill="none" xmlns="http://www.w3.org/2000/svg">
<g clip-path="url(#clip0)">
<path d="M37.9761 2.79288L6.39658 0.0386289C4.81195 -0.112289 3.37823 1.09505 3.26504 2.67969L0.510797 34.2215C0.359879 35.8061 1.56722 37.2398 3.15186 37.353L34.7314 40.1073C36.316 40.2582 37.7497 39.0508 37.8629 37.4662L40.6172 5.88669C40.7681 4.33978 39.5607 2.94379 37.9761 2.79288Z" fill="white"/>
<path d="M35.1836 13.6579L31.3729 26.2218C31.3352 26.335 31.2975 26.3728 31.1843 26.4105L28.3546 26.6746C28.2791 26.6746 28.2037 26.6369 28.2037 26.5237L25.2608 14.6012C25.1853 14.4503 25.2985 14.2993 25.4494 14.2993L27.8264 14.073C27.9396 14.073 28.015 14.1107 28.015 14.2239L30.0147 23.7317L32.6557 13.8089C32.6935 13.6957 32.7312 13.6202 32.8821 13.6202L35.0327 13.4316C35.1082 13.4316 35.2213 13.5448 35.1836 13.6579ZM24.393 15.2426L23.563 16.9027C23.5252 17.0159 23.412 17.0913 23.2611 17.0536C22.6197 16.8272 21.9783 16.7518 21.186 16.8272C20.1296 16.9027 19.5636 17.4309 19.6391 18.4119C19.6768 18.8269 19.8655 19.2042 21.5633 19.7701C23.6384 20.5247 24.1289 21.5057 24.2421 22.6753C24.5062 25.6559 22.5065 27.2783 19.9787 27.5046C18.6204 27.6178 17.5263 27.5801 16.4321 27.0896C16.3566 27.0519 16.2812 26.9764 16.3189 26.901L17.149 25.0145C17.2244 24.8636 17.2621 24.8259 17.4508 24.8636C18.1299 25.1277 18.6959 25.3163 19.8277 25.2409C20.8087 25.1654 21.5256 24.6372 21.4501 23.6185C21.4124 23.1658 21.186 22.7885 19.6014 22.1848C17.564 21.4302 16.9226 20.4115 16.8094 19.0533C16.583 16.5254 18.3563 14.7898 20.8087 14.5635C22.3556 14.4125 23.0725 14.488 24.2798 14.9407C24.4307 14.9785 24.4307 15.0917 24.393 15.2426ZM15.5266 16.1104L14.6965 17.7327C14.6588 17.8082 14.6211 17.8836 14.5456 17.8836C14.5079 17.8836 14.4324 17.8836 14.3947 17.8459C13.7533 17.5818 13.1874 17.5063 12.4328 17.5441C11.0745 17.6573 9.03714 19.1664 9.3767 22.8262C9.56535 24.9013 10.735 25.92 12.1687 25.7691C12.7346 25.7314 13.376 25.5804 14.1306 25.1277C14.2815 25.0522 14.357 25.09 14.4324 25.1654L15.187 26.7123C15.2625 26.8632 15.2248 26.9764 15.0738 27.0896C14.0929 27.7687 13.1874 27.9951 11.8668 28.1083C8.88622 28.3724 6.96202 26.6746 6.69791 23.4676C6.24516 18.4873 8.92395 15.6199 12.3196 15.318C13.7156 15.2049 14.5834 15.2803 15.4511 15.7708C15.6021 15.8085 15.6021 15.9594 15.5266 16.1104ZM37.8624 3.92376L6.32062 1.16952C5.33965 1.09406 4.50961 1.81092 4.39642 2.75415L1.64217 34.3337C1.56671 35.3146 2.28357 36.1447 3.22681 36.2579L34.8063 39.0121C35.7873 39.0876 36.6173 38.3707 36.7305 37.4275L39.4848 5.84796C39.5602 4.867 38.8434 3.99922 37.8624 3.92376Z" fill="#F58220"/>
</g>
<defs>
<clipPath id="clip0">
<rect width="40.1818" height="40.1818" fill="white" transform="translate(0.472656)"/>
</clipPath>
</defs>
</svg>
