<svg width="91" height="26" viewBox="0 0 91 26" fill="none" xmlns="http://www.w3.org/2000/svg">
<g clip-path="url(#clip0)">
<path fill-rule="evenodd" clip-rule="evenodd" d="M84.7287 10.7681C84.6469 10.7844 84.5648 10.9652 84.5648 11.0636C84.5485 11.721 84.5321 13.4627 84.5321 14.6457C84.5321 14.6787 84.5812 14.7444 84.6304 14.7444C84.8764 14.7608 85.4668 14.7771 85.9753 14.7771C86.6806 14.7771 87.0906 14.6787 87.3204 14.5802C87.9107 14.2843 88.1895 13.6435 88.1895 12.9368C88.1895 11.3432 87.0742 10.7351 85.4176 10.7351C85.3028 10.7187 84.975 10.7187 84.7287 10.7681ZM88.9605 18.1128C88.9605 16.4861 87.7631 15.5823 85.5982 15.5823C85.4997 15.5823 84.8108 15.5659 84.6467 15.5987C84.5975 15.6153 84.5321 15.6482 84.5321 15.6975C84.5321 16.8639 84.5156 18.7209 84.5648 19.4438C84.5975 19.7559 84.8273 20.1996 85.1062 20.331C85.4012 20.4954 86.0738 20.5281 86.533 20.5281C87.8287 20.5281 88.9605 19.8052 88.9605 18.1128ZM81.383 9.86444C81.5469 9.86444 82.0389 9.91358 83.3018 9.91358C84.4992 9.91358 85.4505 9.88082 86.615 9.88082C88.0418 9.88082 90.0101 10.3901 90.0101 12.5262C90.0101 13.5778 89.2719 14.4159 88.3043 14.8266C88.2553 14.843 88.2553 14.8758 88.3043 14.8922C89.682 15.2374 90.8959 16.0917 90.8959 17.7019C90.8959 19.2794 89.9118 20.2817 88.4847 20.9061C87.6154 21.284 86.533 21.4154 85.4341 21.4154C84.5975 21.4154 82.3506 21.3169 81.1042 21.3499C80.973 21.3004 81.219 20.7089 81.3336 20.6104C81.629 20.5938 81.8585 20.5775 82.1702 20.4788C82.6131 20.364 82.6622 20.2324 82.7277 19.5588C82.7606 18.9837 82.7606 16.946 82.7606 15.5002C82.7606 13.5121 82.7772 12.1647 82.7606 11.5075C82.7443 10.9983 82.5639 10.8338 82.2031 10.7351C81.924 10.686 81.465 10.6201 81.0876 10.571C81.0055 10.4887 81.2844 9.92996 81.383 9.86444ZM71.919 20.0846C72.3129 20.3966 73.0837 20.528 73.7726 20.528C74.6583 20.528 75.5439 20.364 76.3969 19.5914C77.2662 18.803 77.873 17.587 77.873 15.6482C77.873 13.7913 77.1677 12.2796 75.7243 11.3925C74.9043 10.8829 73.8546 10.6696 72.6408 10.6696C72.28 10.6696 71.9356 10.686 71.7225 10.7844C71.6731 10.8174 71.5584 10.9652 71.5584 11.0473C71.5255 11.3759 71.5255 13.9063 71.5255 15.3852C71.5255 16.9133 71.5255 19.0494 71.5584 19.2958C71.5584 19.5424 71.6731 19.9203 71.9192 20.0846H71.919ZM68.1959 9.86426C68.5076 9.86426 69.7048 9.91358 70.2789 9.91358C71.3124 9.91358 72.0504 9.86444 74.0021 9.86444C75.6422 9.86444 77.02 10.308 78.0041 11.1459C79.2013 12.1811 79.8248 13.6107 79.8248 15.3523C79.8248 17.8335 78.693 19.2631 77.5612 20.0846C76.4297 20.9225 74.9535 21.4154 72.8541 21.4154C71.7388 21.4154 69.8198 21.3826 68.2287 21.3661H68.2124C68.1305 21.2183 68.3436 20.6432 68.4747 20.6268C68.9013 20.5775 69.0161 20.5609 69.2294 20.479C69.5737 20.3474 69.6394 20.1667 69.6887 19.5588C69.7377 18.425 69.7214 17.0612 69.7214 15.5166C69.7214 14.4159 69.7377 12.2632 69.7048 11.5731C69.6558 10.9981 69.4098 10.8501 68.9176 10.7515C68.6717 10.7024 68.3436 10.6365 67.8845 10.5873C67.8187 10.4721 68.1139 9.9629 68.1959 9.86444V9.86426Z" fill="#8E714E"/>
<path fill-rule="evenodd" clip-rule="evenodd" d="M48.3493 20.7246C47.9393 20.6753 47.6441 20.6098 47.2833 20.4454C47.234 20.4125 47.1519 20.2483 47.1519 20.1824C47.1192 19.6073 47.1192 17.9642 47.1192 16.8635C47.1192 15.9761 46.9717 15.2038 46.5944 14.6617C46.1515 14.0371 45.512 13.6758 44.6917 13.6758C43.9701 13.6758 43.0024 14.1686 42.1986 14.8588C42.1823 14.8752 42.0511 14.9904 42.0675 14.8095C42.0675 14.6287 42.1004 14.2673 42.1167 14.0207C42.1332 13.7906 42.0019 13.6758 42.0019 13.6758C41.477 13.9386 40.001 14.2837 39.4596 14.3328C39.0661 14.4152 38.9676 14.7931 39.3778 14.9245H39.3942C39.8367 15.0559 40.1321 15.2038 40.3616 15.3518C40.5256 15.4832 40.5093 15.6639 40.5093 15.8119C40.5256 17.044 40.5256 18.9337 40.4766 19.9689C40.4602 20.3797 40.3454 20.5275 40.05 20.5932L40.0829 20.5768C39.8533 20.6262 39.6729 20.6753 39.394 20.7082C39.2955 20.8069 39.2955 21.3327 39.394 21.4477C39.5744 21.4477 40.5256 21.3984 41.3132 21.3984C42.3956 21.3984 42.9533 21.4477 43.232 21.4477C43.3468 21.3163 43.3797 20.8233 43.3141 20.7082C43.0024 20.6919 42.7727 20.6591 42.5596 20.5932C42.2644 20.5273 42.1823 20.3797 42.1658 20.0347C42.1332 19.1636 42.1332 17.3234 42.1332 16.0747C42.1332 15.7296 42.2315 15.5653 42.3298 15.4667C42.7071 15.1381 43.3141 14.9081 43.8553 14.9081C44.3802 14.9081 44.7244 15.0724 44.9869 15.2861C45.3477 15.5817 45.4626 16.009 45.5118 16.3211C45.5937 17.0277 45.561 18.4243 45.561 19.6403C45.561 20.2975 45.5118 20.4618 45.266 20.5439C45.151 20.5932 44.8558 20.6591 44.5113 20.6917C44.3965 20.8069 44.4294 21.3163 44.5113 21.4313C44.9869 21.4313 45.5447 21.382 46.3647 21.382C47.3816 21.382 48.0377 21.4313 48.3003 21.4313C48.382 21.3327 48.4149 20.8562 48.3493 20.7246ZM52.8926 14.4482C52.0234 14.4482 51.4821 15.1218 51.4821 16.1732C51.4821 17.2413 51.9577 18.4736 53.3026 18.4736C53.5322 18.4736 53.9588 18.375 54.1554 18.145C54.4671 17.8494 54.6804 17.2577 54.6804 16.6333C54.6804 15.2695 54.0078 14.448 52.8926 14.448V14.4482ZM52.7777 21.7105C52.4498 21.7105 52.22 21.8091 52.0725 21.8914C51.3836 22.3348 51.072 22.7621 51.072 23.2717C51.072 23.748 51.2524 24.1258 51.6461 24.4545C52.1217 24.8653 52.7777 25.0626 53.6142 25.0626C55.2872 25.0626 56.0253 24.1588 56.0253 23.2717C56.0253 22.6471 55.7136 22.2363 55.0741 22.0064C54.6148 21.8091 53.7784 21.7105 52.7777 21.7105ZM52.8926 25.9827C51.8921 25.9827 51.1703 25.7691 50.5472 25.2926C49.9402 24.8325 49.6779 24.1424 49.6779 23.6659C49.6779 23.5345 49.7108 23.1729 50.006 22.8444C50.1862 22.6471 50.5801 22.2692 51.5149 21.6284C51.5476 21.612 51.564 21.5957 51.564 21.5625C51.564 21.5298 51.5311 21.4968 51.4984 21.4806C50.7276 21.1849 50.4979 20.7082 50.4322 20.4454V20.4125C50.416 20.3138 50.3831 20.2154 50.5308 20.1167C50.6456 20.0347 50.8097 19.936 50.9899 19.8212C51.2688 19.6566 51.564 19.4759 51.7444 19.328C51.7773 19.2952 51.7773 19.2624 51.7773 19.2295C51.7773 19.1965 51.7444 19.1636 51.7115 19.1474C50.5637 18.7694 49.9896 17.9149 49.9896 16.6333C49.9896 15.7953 50.3668 15.0395 51.0391 14.563C51.4984 14.2016 52.6466 13.7579 53.4011 13.7579H53.4503C54.2211 13.7742 54.6475 13.9386 55.2543 14.1523C55.5824 14.2673 55.8941 14.3164 56.3207 14.3164C56.9602 14.3164 57.2391 14.1193 57.4685 13.8894C57.485 13.9222 57.5179 14.0045 57.5343 14.218C57.5506 14.4316 57.485 14.7438 57.321 14.9738C57.1898 15.1545 56.8946 15.2861 56.5994 15.2861H56.5173C56.2221 15.2532 56.0907 15.2202 56.0907 15.2202L56.0253 15.2532C56.009 15.2861 56.0253 15.3189 56.0417 15.3682L56.0582 15.4011C56.0909 15.5489 56.1565 15.9925 56.1565 16.1077C56.1565 17.455 55.6153 18.0463 55.0412 18.49C54.4835 18.9008 53.844 19.1636 53.1222 19.2295C53.1058 19.2295 53.0404 19.2295 52.8926 19.2459C52.8106 19.2459 52.6958 19.2624 52.6793 19.2624H52.6629C52.5318 19.2952 52.2038 19.4595 52.2038 19.7387C52.2038 19.9852 52.3514 20.2811 53.0566 20.3304C53.2041 20.3468 53.3516 20.3468 53.5159 20.3633C54.4508 20.4289 55.6153 20.5111 56.1565 20.6919C56.911 20.971 57.3866 21.6448 57.3866 22.45C57.3866 23.6661 56.5175 24.7998 55.0741 25.5061C54.3688 25.8184 53.6634 25.9827 52.8926 25.9827ZM62.2414 14.5303C61.8971 14.5303 61.5854 14.6122 61.3557 14.7765C60.7163 15.1709 60.3882 15.9597 60.3882 17.1097C60.3882 19.2624 61.4706 20.7741 63.0124 20.7741C63.4717 20.7741 63.8325 20.6425 64.144 20.3797C64.6196 19.9852 64.8658 19.1965 64.8658 18.0956C64.8658 15.9597 63.7996 14.5301 62.2416 14.5301L62.2414 14.5303ZM62.5368 21.5627C59.7485 21.5627 58.748 19.5089 58.748 17.5864C58.748 16.2391 59.2892 15.2038 60.3716 14.4644C61.1426 13.9879 62.0612 13.7251 62.8812 13.7251C65.0133 13.7251 66.5059 15.2532 66.5059 17.455C66.5059 18.9501 65.9155 20.1331 64.7837 20.8562C64.2425 21.2176 63.3076 21.5627 62.5366 21.5627H62.5368ZM33.3091 14.5301C32.9646 14.5301 32.6531 14.6122 32.4232 14.7765C31.7838 15.1709 31.4557 15.9597 31.4557 17.1097C31.4557 19.2624 32.5381 20.7741 34.0799 20.7741C34.5392 20.7741 34.9 20.6425 35.2117 20.3797C35.6872 19.9852 35.9333 19.1965 35.9333 18.0956C35.9333 15.9597 34.8836 14.5301 33.3091 14.5301ZM33.6043 21.5627C30.816 21.5627 29.8155 19.5089 29.8155 17.5864C29.8155 16.2391 30.3567 15.2038 31.4391 14.4644C32.2101 13.9879 33.1287 13.7251 33.9487 13.7251C36.081 13.7251 37.5735 15.2532 37.5735 17.455C37.5735 18.9501 36.983 20.1331 35.8512 20.8562C35.3264 21.2176 34.3915 21.5627 33.6043 21.5627ZM14.8572 21.3984C14.8243 21.3492 14.7915 21.2013 14.808 21.0205C14.808 20.889 14.8409 20.8069 14.8572 20.7741C15.2017 20.7246 15.3821 20.6753 15.5788 20.6262C15.9069 20.5439 16.0381 20.3633 16.0544 19.9526C16.1039 18.9667 16.1039 17.0934 16.0873 15.7953V15.7624C16.0873 15.6146 16.0873 15.4337 15.9069 15.3023C15.6444 15.1381 15.3328 14.9904 14.9228 14.875C14.7753 14.826 14.6768 14.7438 14.6932 14.6453C14.6932 14.5466 14.7916 14.4316 15.0049 14.3987C15.5461 14.3494 16.9564 14.0045 17.5142 13.7579C17.5471 13.7906 17.5963 13.8894 17.5963 14.0209L17.5799 14.2014C17.5634 14.3823 17.5471 14.596 17.5471 14.8095C17.5471 14.8752 17.6128 14.9245 17.6782 14.9245C17.7111 14.9245 17.744 14.9081 17.7767 14.8915C18.8264 14.07 19.7776 13.7742 20.2696 13.7742C21.0735 13.7742 21.6968 14.1523 22.1724 14.9409C22.2051 14.9904 22.238 15.0067 22.2872 15.0067C22.3199 15.0067 22.369 14.9904 22.3855 14.9574C23.3533 14.218 24.321 13.7742 24.9605 13.7742C26.4859 13.7742 27.388 14.9081 27.388 16.8306C27.388 17.3727 27.388 18.0793 27.3717 18.7203C27.3717 19.2952 27.3553 19.821 27.3553 20.199C27.3553 20.2809 27.47 20.5439 27.6504 20.5932C27.88 20.7082 28.1917 20.7576 28.6018 20.8233H28.6181C28.651 20.9383 28.5854 21.3654 28.5198 21.4477C28.4214 21.4477 28.2737 21.4477 28.1098 21.4313C27.6946 21.4096 27.2789 21.3986 26.8632 21.3984C25.8464 21.3984 25.3215 21.4148 24.8128 21.4477C24.7803 21.3163 24.7638 20.9219 24.8128 20.8233C25.1082 20.7741 25.2558 20.7246 25.4363 20.6755C25.7644 20.5768 25.8464 20.4289 25.8629 20.0017C25.8629 19.6896 25.9283 17.0277 25.8298 16.3868C25.7315 15.7296 25.2394 14.9574 24.1568 14.9574C23.7468 14.9574 23.1073 15.1218 22.484 15.5981C22.4513 15.631 22.4182 15.7131 22.4182 15.7624V15.779C22.484 16.1239 22.484 16.5184 22.484 17.1263V18.1943C22.484 18.9337 22.4675 19.6239 22.484 20.1495C22.484 20.5111 22.6973 20.5932 22.8777 20.6591C22.9761 20.6753 23.0415 20.6919 23.1237 20.7082C23.2712 20.7412 23.4189 20.7741 23.6485 20.8233C23.6814 20.8891 23.6814 21.1026 23.6321 21.2834C23.6156 21.382 23.5827 21.4311 23.5664 21.4477C23.0088 21.4313 22.4348 21.4148 21.5983 21.4148C21.3524 21.4148 20.9258 21.4313 20.565 21.4313C20.2696 21.4313 19.9909 21.4477 19.827 21.4477C19.8105 21.4148 19.7776 21.2999 19.7776 21.119C19.7776 20.9712 19.8105 20.8562 19.8434 20.8233C19.9253 20.8069 19.9909 20.7905 20.073 20.7905C20.2696 20.7576 20.4338 20.7246 20.5977 20.6919C20.8767 20.6098 20.975 20.4618 20.9914 20.1004C21.0406 19.2788 21.0898 16.9292 20.975 16.3375C20.7783 15.3846 20.2371 14.9081 19.3676 14.9081C18.8593 14.9081 18.2194 15.1545 17.6948 15.5491C17.6126 15.6146 17.5471 15.7788 17.5471 15.9268V16.8963C17.5471 18.0793 17.5471 19.5582 17.5634 20.199C17.5799 20.3959 17.6453 20.6262 18.0227 20.7082C18.1048 20.7246 18.236 20.7576 18.4 20.7741L18.695 20.8233C18.7281 20.9219 18.7116 21.3163 18.646 21.4477C18.4819 21.4477 18.2852 21.4313 18.0554 21.4313C17.7111 21.4148 17.2682 21.3984 16.7762 21.3984C16.2021 21.3984 15.7921 21.4148 15.464 21.4313C15.2344 21.3984 15.054 21.3984 14.8572 21.3984Z" fill="#442D22"/>
<path fill-rule="evenodd" clip-rule="evenodd" d="M6.23128 25.3423L5.55892 25.1121C5.55892 25.1121 5.64103 21.6781 4.41075 21.4317C3.59086 20.4786 4.54228 -18.9891 7.49444 21.3001C7.49444 21.3001 6.47745 21.8093 6.29705 22.6804C6.10012 23.5349 6.23128 25.3423 6.23128 25.3423Z" fill="white"/>
<path fill-rule="evenodd" clip-rule="evenodd" d="M6.23128 25.3423L5.55892 25.1121C5.55892 25.1121 5.64103 21.6781 4.41075 21.4317C3.59086 20.4786 4.54228 -18.9891 7.49444 21.3001C7.49444 21.3001 6.47745 21.8093 6.29705 22.6804C6.10012 23.5349 6.23128 25.3423 6.23128 25.3423Z" fill="#A6A385"/>
<path fill-rule="evenodd" clip-rule="evenodd" d="M6.59194 22.0231C6.59194 22.0231 12.4803 18.1452 11.1023 10.0774C9.77392 4.21173 6.64117 2.28927 6.29672 1.54981C5.91957 1.02401 5.55859 0.104004 5.55859 0.104004L5.80476 16.4199C5.80476 16.4364 5.29626 21.415 6.59212 22.0233" fill="white"/>
<path fill-rule="evenodd" clip-rule="evenodd" d="M6.59194 22.0231C6.59194 22.0231 12.4803 18.1452 11.1023 10.0774C9.77392 4.21173 6.64117 2.28927 6.29672 1.54981C5.91957 1.02401 5.55859 0.104004 5.55859 0.104004L5.80476 16.4199C5.80476 16.4364 5.29626 21.415 6.59212 22.0233" fill="#499D4A"/>
<path fill-rule="evenodd" clip-rule="evenodd" d="M5.21349 22.2365C5.21349 22.2365 -0.314049 18.4573 0.0140489 11.8029C0.325617 5.14826 4.2292 1.87846 4.98368 1.28696C5.47583 0.761167 5.49218 0.563882 5.52506 0.0380859C5.86951 0.777548 5.80392 11.0964 5.85298 12.3121C6.0005 16.995 5.59064 21.3495 5.21349 22.2365Z" fill="white"/>
<path fill-rule="evenodd" clip-rule="evenodd" d="M5.21349 22.2365C5.21349 22.2365 -0.314049 18.4573 0.0140489 11.8029C0.325617 5.14826 4.2292 1.87846 4.98368 1.28696C5.47583 0.761167 5.49218 0.563882 5.52506 0.0380859C5.86951 0.777548 5.80392 11.0964 5.85298 12.3121C6.0005 16.995 5.59064 21.3495 5.21349 22.2365Z" fill="#58AA50"/>
</g>
<defs>
<clipPath id="clip0">
<rect width="91" height="26" fill="white"/>
</clipPath>
</defs>
</svg>
