<svg width="82" height="23" viewBox="0 0 82 23" fill="none" xmlns="http://www.w3.org/2000/svg">
<path d="M75.4413 8.18652C75.2421 8.18652 75.0483 8.22729 74.8768 8.32341L69.4495 11.4276C69.0983 11.6281 68.8848 12.0066 68.8848 12.4093V18.6065C68.8848 19.0089 69.0983 19.3869 69.4495 19.5879L70.8668 20.3983C71.5555 20.7344 71.8093 20.7291 72.1228 20.7291C73.1423 20.7291 73.7245 20.1164 73.7245 19.0516V12.9342C73.7245 12.8478 73.6489 12.7859 73.5632 12.7859H72.8833C72.7962 12.7859 72.7221 12.8478 72.7221 12.9342V19.0516C72.7221 19.5235 72.2256 19.9982 71.42 19.5993L69.945 18.7434C69.8928 18.7153 69.8527 18.6656 69.8527 18.6065V12.4092C69.8527 12.3505 69.8923 12.2907 69.945 12.2609L75.3608 9.16823C75.3852 9.15407 75.4131 9.1466 75.4414 9.1466C75.4697 9.1466 75.4976 9.15407 75.522 9.16823L80.938 12.261C80.9895 12.2918 81.0302 12.3487 81.0302 12.4095V18.6066C81.0302 18.6658 81.0001 18.7264 80.9495 18.7549L75.522 21.8477C75.4756 21.8752 75.4115 21.8752 75.3608 21.8477L73.9665 21.0261C73.9452 21.0147 73.9215 21.0087 73.8974 21.0087C73.8732 21.0087 73.8495 21.0147 73.8282 21.0261C73.4434 21.2421 73.371 21.2672 73.01 21.3912C72.9211 21.422 72.7861 21.4697 73.0561 21.6196L74.8768 22.6808C75.0484 22.7789 75.2433 22.8301 75.4415 22.8293C75.6396 22.8305 75.8345 22.7793 76.006 22.681L81.4335 19.588C81.7847 19.3858 81.998 19.0091 81.998 18.6066V12.4093C81.998 12.0067 81.7847 11.6289 81.4335 11.4279L76.006 8.32373C75.8359 8.22745 75.6409 8.18668 75.4415 8.18668L75.4413 8.18652Z" fill="#83CD29"/>
<path d="M76.8924 12.6147C75.3469 12.6147 74.4265 13.2662 74.4265 14.3496C74.4265 15.5246 75.3401 15.8476 76.8234 15.9929C78.5979 16.165 78.7361 16.4231 78.7361 16.769C78.7361 17.3691 78.2531 17.6249 77.1115 17.6249C75.677 17.6249 75.3618 17.2703 75.2563 16.5636C75.2438 16.4878 75.1847 16.4266 75.1064 16.4266H74.4035C74.317 16.4266 74.2422 16.5005 74.2422 16.5864C74.2422 17.4911 74.739 18.5608 77.1115 18.5608C78.8289 18.5608 79.8194 17.8932 79.8194 16.7233C79.8194 15.5638 79.0193 15.2524 77.3534 15.0343C75.6701 14.8137 75.5097 14.7057 75.5097 14.3153C75.5097 13.993 75.6458 13.5619 76.8924 13.5619C78.0062 13.5619 78.4178 13.7998 78.5864 14.5436C78.6011 14.6134 78.6633 14.669 78.7361 14.669H79.4392C79.4825 14.669 79.5244 14.6427 79.5544 14.6119C79.5838 14.5791 79.6047 14.5421 79.6005 14.4979C79.4916 13.2172 78.6293 12.6147 76.8924 12.6147Z" fill="#83CD29"/>
<path d="M43.5328 0.0606206C43.4722 0.0606604 43.4125 0.0763501 43.3599 0.106145C43.3075 0.136484 43.264 0.179808 43.2337 0.231849C43.2034 0.283889 43.1873 0.342851 43.187 0.402924V9.13372C43.187 9.21938 43.1468 9.29615 43.0719 9.33914C43.0352 9.36033 42.9934 9.3715 42.9509 9.3715C42.9084 9.3715 42.8666 9.36033 42.8299 9.33914L41.3895 8.51748C41.2844 8.45727 41.1652 8.42557 41.0438 8.42557C40.9224 8.42557 40.8032 8.45727 40.6981 8.51748L34.9481 11.8043C34.7331 11.9272 34.6024 12.1634 34.6024 12.4092V18.983C34.6024 19.2285 34.7333 19.4534 34.9481 19.5764L40.6981 22.8633C40.8031 22.9237 40.9224 22.9555 41.0438 22.9555C41.1652 22.9555 41.2845 22.9237 41.3895 22.8633L47.1395 19.5764C47.2448 19.5163 47.3322 19.4299 47.3929 19.3257C47.4536 19.2215 47.4855 19.1033 47.4853 18.983V2.59427C47.4851 2.47115 47.452 2.35027 47.3892 2.24399C47.3265 2.1377 47.2364 2.04981 47.1281 1.98929L43.7056 0.094724C43.652 0.0650619 43.5924 0.0598275 43.5328 0.0606206ZM6.54354 8.26639C6.434 8.27067 6.33086 8.2897 6.23252 8.34617L0.482335 11.6331C0.377003 11.693 0.289552 11.7795 0.228853 11.8837C0.168155 11.9879 0.136369 12.1062 0.136722 12.2265L0.148253 21.0488C0.148253 21.1714 0.212154 21.2855 0.321059 21.3455C0.373271 21.3765 0.433035 21.3929 0.493946 21.3929C0.554858 21.3929 0.614621 21.3765 0.666833 21.3455L4.07764 19.4054C4.29369 19.2782 4.43479 19.057 4.43479 18.8118V14.6918C4.43479 14.4459 4.56531 14.2204 4.78056 14.0982L6.23236 13.2652C6.33733 13.2047 6.45671 13.1732 6.57814 13.1738C6.69665 13.1738 6.81837 13.2031 6.92375 13.2652L8.37571 14.0982C8.48114 14.1581 8.56867 14.2446 8.62941 14.3488C8.69014 14.4531 8.72191 14.5714 8.72148 14.6918V18.8116C8.72148 19.0569 8.86402 19.2796 9.07863 19.4052L12.4894 21.3455C12.5416 21.3765 12.6014 21.3929 12.6623 21.3929C12.7232 21.3929 12.783 21.3765 12.8352 21.3455C12.8878 21.3153 12.9314 21.2721 12.9618 21.22C12.9921 21.1679 13.0081 21.1088 13.0082 21.0487L13.0194 12.2265C13.0201 12.1061 12.9884 11.9877 12.9277 11.8835C12.867 11.7792 12.7793 11.6928 12.6738 11.6331L6.92375 8.34617C6.82653 8.2897 6.72307 8.27083 6.61273 8.26639H6.54354ZM58.2132 8.34617C58.0931 8.34617 57.9754 8.37631 57.8676 8.43754L52.1176 11.7245C52.0123 11.7845 51.9249 11.8709 51.8641 11.9751C51.8034 12.0793 51.7716 12.1976 51.7718 12.3179V18.8916C51.7718 19.1389 51.9124 19.3629 52.129 19.4852L57.833 22.7036C58.0436 22.8225 58.3008 22.8316 58.5129 22.7147L61.9698 20.8088C62.0795 20.7486 62.1537 20.6359 62.1541 20.5122C62.1547 20.452 62.139 20.3927 62.1086 20.3405C62.0782 20.2883 62.0343 20.2451 61.9813 20.2154L56.1967 16.9285C56.0885 16.8673 56.0124 16.7434 56.0124 16.6203V14.5662C56.0124 14.4432 56.0893 14.3306 56.1967 14.2694L57.9943 13.2422C58.0468 13.212 58.1065 13.1962 58.1672 13.1962C58.2279 13.1962 58.2875 13.212 58.3401 13.2422L60.1375 14.2694C60.1901 14.2993 60.2339 14.3426 60.2642 14.3947C60.2946 14.4467 60.3106 14.5059 60.3104 14.566V16.1866C60.3103 16.2468 60.3262 16.3059 60.3565 16.358C60.3869 16.4101 60.4306 16.4533 60.4833 16.4833C60.591 16.545 60.7214 16.5451 60.8289 16.4833L64.2744 14.4978C64.3795 14.4376 64.4668 14.351 64.5275 14.2468C64.5882 14.1427 64.6202 14.0245 64.6202 13.9042V12.318C64.6202 12.073 64.4889 11.8476 64.2744 11.7245L58.559 8.43754C58.4539 8.37734 58.3346 8.34587 58.2132 8.34633V8.34617ZM41.0206 13.2537C41.0508 13.2537 41.086 13.261 41.1129 13.2764L43.0834 14.4063C43.1369 14.4369 43.1757 14.4935 43.1757 14.5546V16.8143C43.1757 16.8757 43.1372 16.9322 43.0834 16.9628L41.1129 18.0926C41.0866 18.1075 41.0568 18.1153 41.0265 18.1153C40.9962 18.1153 40.9664 18.1075 40.9401 18.0926L38.9697 16.9628C38.916 16.932 38.8775 16.8757 38.8775 16.8143V14.5546C38.8775 14.4934 38.9162 14.4372 38.9697 14.4063L40.9401 13.2766C40.9643 13.2617 40.9923 13.2538 41.0208 13.2539V13.2537H41.0206Z" fill="#404137"/>
<path d="M23.8164 8.31201C23.6966 8.31201 23.5781 8.34215 23.4708 8.40338L17.7208 11.6789C17.5057 11.8015 17.375 12.0382 17.375 12.2837V18.8574C17.375 19.1033 17.5058 19.3279 17.7208 19.451L23.4708 22.7378C23.5758 22.7982 23.6951 22.83 23.8165 22.83C23.9379 22.83 24.0572 22.7982 24.1622 22.7378L29.9122 19.451C30.0175 19.3909 30.1049 19.3044 30.1656 19.2002C30.2263 19.096 30.2581 18.9777 30.2578 18.8574V12.2837C30.2578 12.0379 30.1271 11.8015 29.9122 11.6789L24.1622 8.40338C24.0571 8.34326 23.9378 8.31174 23.8164 8.31201ZM58.2014 14.1783C58.1785 14.1783 58.1531 14.1783 58.1324 14.1897L57.0262 14.8288C57.0056 14.8401 56.9883 14.8567 56.9762 14.8767C56.964 14.8968 56.9574 14.9196 56.957 14.943V16.1983C56.957 16.2456 56.9846 16.2889 57.0262 16.3125L58.1324 16.9402C58.1739 16.964 58.2181 16.964 58.2591 16.9402L59.3653 16.3124C59.3858 16.301 59.403 16.2844 59.4151 16.2644C59.4273 16.2444 59.4339 16.2216 59.4345 16.1983V14.9428C59.4339 14.9195 59.4273 14.8967 59.4151 14.8767C59.403 14.8567 59.3858 14.8402 59.3653 14.8288L58.2591 14.1895C58.2386 14.1776 58.2245 14.1784 58.2014 14.1784V14.1783Z" fill="#83CD29"/>
</svg>
