<svg width="55" height="29" viewBox="0 0 55 29" fill="none" xmlns="http://www.w3.org/2000/svg">
<path d="M27.5 28.8309C42.6878 28.8309 55 22.3769 55 14.4154C55 6.45402 42.6878 0 27.5 0C12.3122 0 0 6.45402 0 14.4154C0 22.3769 12.3122 28.8309 27.5 28.8309Z" fill="#8993BE"/>
<path fill-rule="evenodd" clip-rule="evenodd" d="M7.72266 22.9509L10.7365 7.58702H17.7054C20.719 7.77676 22.2259 9.29403 22.2259 11.9497C22.2259 16.502 18.6472 19.1575 15.445 18.9677H12.055L11.3015 22.9509H7.72266ZM12.8082 16.1227L13.7501 10.4322H16.1987C17.5172 10.4322 18.4588 11.0012 18.4588 12.1393C18.2706 15.364 16.7637 15.933 15.0686 16.1227H12.8084H12.8082ZM21.5257 18.9677L24.5393 3.604H28.1182L27.3647 7.58702H30.755C33.7688 7.77676 34.8989 9.29403 34.5223 11.191L33.2038 18.9677H29.4367L30.7552 11.9497C30.9434 11.0012 30.9434 10.4322 29.6251 10.4322H26.7997L25.1046 18.9677H21.5257ZM32.9625 22.9509L35.9761 7.58702H42.9452C45.959 7.77676 47.466 9.29403 47.466 11.9497C47.466 16.502 43.8871 19.1575 40.6851 18.9677H37.2946L36.5412 22.9509H32.9625ZM38.0478 16.1227L38.9897 10.4322H41.4385C42.757 10.4322 43.6987 11.0012 43.6987 12.1393C43.5105 15.364 42.0036 15.933 40.3084 16.1227H38.0481H38.0478Z" fill="#232531"/>
</svg>
