<svg width="35" height="35" viewBox="0 0 35 35" fill="none" xmlns="http://www.w3.org/2000/svg">
<path d="M17.3499 0.00976562C8.48696 0.00976562 9.04034 3.86869 9.04034 3.86869L9.05019 7.86665H17.5079V9.06694H5.69091C5.69091 9.06694 0.0195312 8.42116 0.0195312 17.3997C0.0195312 26.3785 4.96965 26.0601 4.96965 26.0601H7.92387V21.8935C7.92387 21.8935 7.7646 16.9235 12.795 16.9235H21.1835C21.1835 16.9235 25.8965 17 25.8965 12.3504V4.66243C25.8965 4.66243 26.6122 0.00976562 17.3499 0.00976562ZM12.6863 2.69831C12.8862 2.69813 13.0841 2.73752 13.2688 2.81423C13.4535 2.89094 13.6213 3.00346 13.7626 3.14535C13.9039 3.28724 14.016 3.45572 14.0924 3.64114C14.1688 3.82657 14.208 4.0253 14.2078 4.22596C14.208 4.42663 14.1688 4.62536 14.0924 4.81078C14.016 4.9962 13.9039 5.16468 13.7626 5.30657C13.6213 5.44846 13.4535 5.56098 13.2688 5.63769C13.0841 5.7144 12.8862 5.75379 12.6863 5.75361C12.4864 5.75379 12.2885 5.7144 12.1038 5.63769C11.9191 5.56098 11.7513 5.44846 11.61 5.30657C11.4687 5.16468 11.3566 4.9962 11.2802 4.81078C11.2038 4.62536 11.1646 4.42663 11.1648 4.22596C11.1646 4.0253 11.2038 3.82657 11.2802 3.64114C11.3566 3.45572 11.4687 3.28724 11.61 3.14535C11.7513 3.00346 11.9191 2.89094 12.1038 2.81423C12.2885 2.73752 12.4864 2.69813 12.6863 2.69831Z" fill="url(#paint0_linear)"/>
<path d="M17.6025 34.8803C26.4654 34.8803 25.912 31.0214 25.912 31.0214L25.9022 27.0235H17.4443V25.8232H29.2613C29.2613 25.8232 34.9327 26.469 34.9327 17.4902C34.9327 8.51158 29.9826 8.83001 29.9826 8.83001H27.0284V12.9964C27.0284 12.9964 27.1876 17.9664 22.1573 17.9664H13.7687C13.7687 17.9664 9.05579 17.8899 9.05579 22.5397V30.2277C9.05579 30.2277 8.34013 34.8803 17.6024 34.8803H17.6025ZM22.2661 32.192C22.0662 32.1922 21.8683 32.1528 21.6836 32.0761C21.4989 31.9994 21.3311 31.8869 21.1898 31.745C21.0485 31.6031 20.9364 31.4346 20.86 31.2492C20.7836 31.0637 20.7444 30.865 20.7446 30.6644C20.7444 30.4637 20.7836 30.2649 20.86 30.0795C20.9364 29.8941 21.0484 29.7256 21.1898 29.5837C21.3311 29.4417 21.4989 29.3292 21.6836 29.2525C21.8683 29.1758 22.0662 29.1364 22.2661 29.1366C22.466 29.1364 22.6639 29.1758 22.8486 29.2525C23.0332 29.3292 23.2011 29.4417 23.3424 29.5836C23.4837 29.7255 23.5958 29.894 23.6722 30.0794C23.7486 30.2648 23.7878 30.4636 23.7876 30.6642C23.7878 30.8649 23.7486 31.0636 23.6722 31.249C23.5958 31.4345 23.4837 31.6029 23.3424 31.7448C23.2011 31.8867 23.0332 31.9992 22.8486 32.0759C22.6639 32.1527 22.466 32.192 22.2661 32.1919V32.192Z" fill="url(#paint1_linear)"/>
<defs>
<linearGradient id="paint0_linear" x1="3.37458" y1="3.14613" x2="20.7447" y2="20.2741" gradientUnits="userSpaceOnUse">
<stop stop-color="#387EB8"/>
<stop offset="1" stop-color="#366994"/>
</linearGradient>
<linearGradient id="paint1_linear" x1="13.9952" y1="14.1898" x2="32.6452" y2="31.7497" gradientUnits="userSpaceOnUse">
<stop stop-color="#FFE052"/>
<stop offset="1" stop-color="#FFC331"/>
</linearGradient>
</defs>
</svg>
