<svg width="45" height="41" viewBox="0 0 45 41" fill="none" xmlns="http://www.w3.org/2000/svg">
<path d="M0.132812 20.4557C0.132812 23.881 3.43086 27.0785 8.63025 28.8809C7.59196 34.1818 8.44428 38.4545 11.2908 40.1193C14.2165 41.8306 18.5754 40.6461 22.7126 36.9784C26.7453 40.4979 30.821 41.883 33.665 40.2134C36.5882 38.4973 37.477 33.9349 36.4101 28.4684C41.8257 26.6526 44.855 23.9261 44.855 20.4557C44.855 17.1099 41.551 14.2155 36.4215 12.4247C37.5702 6.7323 36.5969 2.56331 33.6325 0.829727C30.7746 -0.841647 26.6515 0.615101 22.5595 4.22667C18.3022 0.393344 14.2199 -0.776938 11.2586 0.961462C8.40333 2.63765 7.58862 6.9881 8.63025 12.3871C3.60628 14.1635 0.132812 17.1235 0.132812 20.4557Z" fill="white"/>
<path d="M35.3353 14.2028C34.9126 14.0557 34.4862 13.9195 34.0567 13.7942C34.128 13.5007 34.1938 13.2059 34.2543 12.9099C35.2221 8.14531 34.5893 4.307 32.4284 3.04349C30.3565 1.83167 26.9679 3.09518 23.5456 6.11546C23.2084 6.41375 22.8787 6.72063 22.5567 7.03582C22.3411 6.82624 22.1217 6.62073 21.8986 6.41939C18.312 3.18966 14.7169 1.82882 12.5582 3.09607C10.4883 4.31128 9.87517 7.91981 10.7465 12.4352C10.8332 12.8823 10.931 13.3272 11.04 13.7693C10.5313 13.9158 10.04 14.072 9.57002 14.2381C5.36516 15.7248 2.67969 18.055 2.67969 20.4719C2.67969 22.9682 5.56238 25.4721 9.94231 26.9902C10.2975 27.1127 10.6556 27.2262 11.0163 27.3306C10.8991 27.8069 10.7951 28.2865 10.7043 28.7687C9.87359 33.2056 10.5224 36.7285 12.5868 37.9363C14.7191 39.1832 18.2979 37.9015 21.7828 34.8122C22.0582 34.568 22.3347 34.309 22.6116 34.0375C22.9603 34.3787 23.3183 34.71 23.6852 35.031C27.0608 37.9767 30.3945 39.1663 32.4572 37.9553C34.5876 36.7047 35.2798 32.92 34.3809 28.3153C34.3123 27.9636 34.2323 27.6044 34.1427 27.2387C34.394 27.1634 34.6407 27.0857 34.8813 27.0048C39.4345 25.4749 42.3969 23.0016 42.3969 20.4719C42.3969 18.0463 39.6249 15.7004 35.3353 14.2028Z" fill="#53C1DE"/>
<path d="M34.3464 25.3712C34.1293 25.4441 33.9064 25.5145 33.6793 25.5828C33.1766 23.969 32.4981 22.2529 31.6681 20.4801C32.4603 18.7492 33.1124 17.0551 33.6011 15.4517C34.0073 15.5711 34.4017 15.6968 34.7818 15.8296C38.4572 17.1125 40.699 19.0098 40.699 20.4715C40.699 22.0286 38.2777 24.0501 34.3466 25.3712H34.3464ZM32.7152 28.6492C33.1126 30.6853 33.1694 32.5262 32.9061 33.9653C32.6695 35.2584 32.1939 36.1205 31.6057 36.4658C30.354 37.2006 27.6772 36.2455 24.7906 33.7263C24.4596 33.4375 24.1262 33.1291 23.7919 32.8029C24.911 31.5615 26.0295 30.1183 27.121 28.5157C29.0412 28.343 30.8552 28.0604 32.5002 27.6749C32.5811 28.0064 32.6532 28.3314 32.7152 28.6492ZM16.2188 36.3389C14.996 36.7769 14.022 36.7893 13.4333 36.4451C12.1804 35.7125 11.6598 32.8835 12.3701 29.0892C12.4545 28.6408 12.5513 28.1948 12.6601 27.7519C14.2869 28.1168 16.0877 28.3793 18.0124 28.5376C19.1112 30.1058 20.262 31.5472 21.4217 32.8095C21.1752 33.0513 20.9229 33.2869 20.665 33.5161C19.124 34.8823 17.5798 35.8513 16.219 36.3389H16.2188ZM10.4898 25.3616C8.55314 24.6902 6.95378 23.8178 5.85748 22.8659C4.87244 22.0103 4.375 21.1608 4.375 20.4715C4.375 19.005 6.53122 17.1341 10.1274 15.8626C10.5787 15.7037 11.0346 15.5582 11.4944 15.4264C11.9915 17.0658 12.6434 18.78 13.4302 20.5134C12.6332 22.2727 11.9719 24.0141 11.4703 25.6728C11.141 25.5772 10.8141 25.4734 10.4898 25.3616ZM12.4103 12.1043C11.6638 8.23551 12.1595 5.3172 13.407 4.5849C14.7358 3.80483 17.6739 4.91718 20.7707 7.70571C20.9686 7.88398 21.1674 8.07061 21.3665 8.26367C20.2128 9.52023 19.0725 10.9508 17.9832 12.5098C16.1153 12.6854 14.3271 12.9674 12.6833 13.3452C12.582 12.9339 12.491 12.5201 12.4103 12.1041V12.1043ZM29.5425 16.3945C29.1542 15.7143 28.7515 15.0427 28.3347 14.3802C29.6021 14.5424 30.8161 14.7581 31.9562 15.0221C31.614 16.1346 31.1874 17.2979 30.685 18.4905C30.318 17.7842 29.937 17.0854 29.5425 16.3945ZM22.556 9.49331C23.3385 10.3531 24.1223 11.3132 24.8933 12.3548C23.3294 12.2798 21.7629 12.2795 20.199 12.3537C20.9707 11.3217 21.7611 10.363 22.556 9.49331ZM15.5247 16.4063C15.1351 17.0917 14.7613 17.7862 14.4036 18.4892C13.9095 17.3008 13.4868 16.1323 13.1415 15.0039C14.2748 14.7467 15.4832 14.5365 16.7423 14.377C16.3208 15.0436 15.9148 15.7203 15.5247 16.4063ZM16.7785 26.6889C15.4778 26.5417 14.251 26.3422 13.1182 26.0921C13.4688 24.9437 13.9009 23.7501 14.4055 22.5361C14.7647 23.2397 15.1402 23.9347 15.5315 24.6204C15.9309 25.3198 16.3467 26.0095 16.7785 26.6889ZM22.6029 31.5713C21.7988 30.6912 20.9967 29.7179 20.2133 28.671C20.9737 28.7013 21.749 28.7166 22.537 28.7166C23.3466 28.7166 24.1469 28.6983 24.9346 28.6626C24.1612 29.7286 23.3802 30.7033 22.6029 31.5713ZM30.7012 22.4743C31.232 23.7014 31.6795 24.8886 32.035 26.0176C30.8833 26.2841 29.64 26.4987 28.33 26.6581C28.7498 25.9831 29.1563 25.2998 29.5493 24.6084C29.9489 23.9058 30.3329 23.1942 30.7012 22.4743ZM28.0795 23.7488C27.4779 24.8088 26.8424 25.8486 26.1741 26.8666C24.9957 26.952 23.778 26.996 22.537 26.996C21.3011 26.996 20.0989 26.957 18.941 26.8809C18.2554 25.8652 17.6079 24.8236 17 23.7583C16.3948 22.6986 15.8296 21.616 15.3055 20.5129C15.8283 19.4094 16.3918 18.3262 16.9949 17.2657V17.266C17.5977 16.2053 18.2401 15.1681 18.9206 14.1568C20.1018 14.0662 21.3129 14.0188 22.5372 14.0188C23.7669 14.0188 24.9796 14.0666 26.1604 14.1579C26.834 15.1676 27.4723 16.2012 28.0741 17.2566C28.6792 18.3148 29.2502 19.3926 29.7863 20.4884C29.2558 21.5954 28.6865 22.6829 28.0797 23.7488H28.0795ZM31.5797 4.53374C32.9096 5.31167 33.4269 8.44853 32.5913 12.5623C32.5365 12.8302 32.477 13.0972 32.4127 13.363C30.765 12.9774 28.9756 12.6904 27.1022 12.5122C26.0108 10.9362 24.8801 9.50312 23.7449 8.26278C24.0424 7.97196 24.3469 7.68867 24.6583 7.41319C27.5905 4.8252 30.331 3.80341 31.5797 4.53374Z" fill="white"/>
<path d="M22.5388 16.875C24.4976 16.875 26.0854 18.4854 26.0854 20.4718C26.0854 22.4583 24.4976 24.0687 22.5388 24.0687C20.5801 24.0687 18.9922 22.4583 18.9922 20.4718C18.9922 18.4854 20.5801 16.875 22.5388 16.875Z" fill="#53C1DE"/>
</svg>
