<svg width="33" height="32" viewBox="0 0 33 32" fill="none" xmlns="http://www.w3.org/2000/svg">
<path d="M25.452 21.0526L6.69531 31.8962L30.9818 30.2916L32.8522 6.44922L25.4519 21.0525L25.452 21.0526Z" fill="url(#paint0_linear)"/>
<path d="M31.0214 30.2755L28.934 16.2485L23.248 23.5583L31.0214 30.2756V30.2755Z" fill="url(#paint1_linear)"/>
<path d="M31.0507 30.2751L15.7579 29.1064L6.77734 31.8655L31.0507 30.2751Z" fill="url(#paint2_linear)"/>
<path d="M6.79751 31.8687L10.6179 19.6836L2.21094 21.4336L6.79738 31.8686L6.79751 31.8687Z" fill="url(#paint3_linear)"/>
<path d="M23.247 23.5982L19.7317 10.1929L9.67188 19.3737L23.247 23.5985V23.5982Z" fill="url(#paint4_linear)"/>
<path d="M32.0559 10.3818L22.5464 2.82031L19.8984 11.1551L32.0559 10.3818Z" fill="url(#paint5_linear)"/>
<path d="M27.6078 0.124267L22.0149 3.13352L18.4863 0.0839844L27.6078 0.124392V0.124267Z" fill="url(#paint6_linear)"/>
<path d="M0 25.521L2.34291 21.3609L0.447649 16.4048L0 25.521Z" fill="url(#paint7_linear)"/>
<path d="M0.322266 16.2485L2.22913 21.5144L10.5148 19.7046L19.9744 11.1453L22.644 2.88966L18.4405 0L11.294 2.60392C9.04235 4.64289 4.67322 8.67715 4.51571 8.75294C4.35975 8.83049 1.63054 13.8527 0.322266 16.2485Z" fill="white"/>
<path d="M7.01755 6.78805C11.8975 2.0774 18.1884 -0.705724 20.6026 1.66579C23.0155 4.0373 20.4567 9.80044 15.5768 14.5096C10.6968 19.2186 4.48388 22.1551 2.07124 19.7836C-0.342949 17.4137 2.13762 11.4972 7.01755 6.78805Z" fill="url(#paint8_linear)"/>
<path d="M6.79883 31.864L10.5893 19.6401L23.1778 23.5775C18.6263 27.7329 13.564 31.2457 6.79883 31.864Z" fill="url(#paint9_linear)"/>
<path d="M19.9902 11.1214L23.222 23.5842C27.0241 19.692 30.4364 15.5076 32.1077 10.332L19.9904 11.1214H19.9902Z" fill="url(#paint10_linear)"/>
<path d="M32.0757 10.3948C33.3691 6.59473 33.6675 1.14306 27.5688 0.130859L22.5645 2.822L32.0757 10.3948Z" fill="url(#paint11_linear)"/>
<path d="M0 25.4661C0.179163 31.7379 4.82683 31.8314 6.80664 31.8864L2.23348 21.4883L0 25.4661Z" fill="#9E1209"/>
<path d="M20.0078 11.1406C22.9295 12.889 28.8177 16.4002 28.9371 16.4647C29.1227 16.5663 31.4757 12.6016 32.0097 10.3608L20.0078 11.1406Z" fill="url(#paint12_radial)"/>
<path d="M10.584 19.6401L15.6512 29.1583C18.6475 27.5763 20.9939 25.6487 23.1426 23.584L10.584 19.6401Z" fill="url(#paint13_radial)"/>
<path d="M2.21403 21.5016L1.49609 29.8251C2.85077 31.6268 4.71458 31.7834 6.66939 31.6429C5.25503 28.2157 2.42954 21.3628 2.21403 21.5016Z" fill="url(#paint14_linear)"/>
<path d="M22.5352 2.84301L32.6018 4.21838C32.0644 2.00197 30.4146 0.571633 27.6024 0.124512L22.5352 2.84301Z" fill="url(#paint15_linear)"/>
<defs>
<linearGradient id="paint0_linear" x1="28.8633" y1="34.797" x2="22.2175" y2="22.7271" gradientUnits="userSpaceOnUse">
<stop stop-color="#FB7655"/>
<stop offset="0.41" stop-color="#E42B1E"/>
<stop offset="0.99" stop-color="#990000"/>
<stop offset="1" stop-color="#990000"/>
</linearGradient>
<linearGradient id="paint1_linear" x1="32.3158" y1="24.7896" x2="22.6039" y2="22.841" gradientUnits="userSpaceOnUse">
<stop stop-color="#871101"/>
<stop offset="0.99" stop-color="#911209"/>
<stop offset="1" stop-color="#911209"/>
</linearGradient>
<linearGradient id="paint2_linear" x1="25.1702" y1="35.1577" x2="25.0514" y2="29.1482" gradientUnits="userSpaceOnUse">
<stop stop-color="#871101"/>
<stop offset="0.99" stop-color="#911209"/>
<stop offset="1" stop-color="#911209"/>
</linearGradient>
<linearGradient id="paint3_linear" x1="6.41544" y1="20.5651" x2="9.17304" y2="28.8704" gradientUnits="userSpaceOnUse">
<stop stop-color="white"/>
<stop offset="0.23" stop-color="#E57252"/>
<stop offset="0.46" stop-color="#DE3B20"/>
<stop offset="0.99" stop-color="#A60003"/>
<stop offset="1" stop-color="#A60003"/>
</linearGradient>
<linearGradient id="paint4_linear" x1="15.94" y1="12.3844" x2="16.4376" y2="21.3265" gradientUnits="userSpaceOnUse">
<stop stop-color="white"/>
<stop offset="0.23" stop-color="#E4714E"/>
<stop offset="0.56" stop-color="#BE1A0D"/>
<stop offset="0.99" stop-color="#A80D00"/>
<stop offset="1" stop-color="#A80D00"/>
</linearGradient>
<linearGradient id="paint5_linear" x1="24.3924" y1="4.12004" x2="25.1203" y2="10.6177" gradientUnits="userSpaceOnUse">
<stop stop-color="white"/>
<stop offset="0.18" stop-color="#E46342"/>
<stop offset="0.4" stop-color="#C82410"/>
<stop offset="0.99" stop-color="#A80D00"/>
<stop offset="1" stop-color="#A80D00"/>
</linearGradient>
<linearGradient id="paint6_linear" x1="19.7277" y1="1.86327" x2="20.7561" y2="-2.61572" gradientUnits="userSpaceOnUse">
<stop stop-color="white"/>
<stop offset="0.54" stop-color="#C81F11"/>
<stop offset="0.99" stop-color="#BF0905"/>
<stop offset="1" stop-color="#BF0905"/>
</linearGradient>
<linearGradient id="paint7_linear" x1="0.647205" y1="18.3315" x2="3.4335" y2="20.1254" gradientUnits="userSpaceOnUse">
<stop stop-color="white"/>
<stop offset="0.31" stop-color="#DE4024"/>
<stop offset="0.99" stop-color="#BF190B"/>
<stop offset="1" stop-color="#BF190B"/>
</linearGradient>
<linearGradient id="paint8_linear" x1="-3.07651" y1="25.039" x2="21.6497" y2="-1.15056" gradientUnits="userSpaceOnUse">
<stop stop-color="#BD0012"/>
<stop offset="0.07" stop-color="white"/>
<stop offset="0.17" stop-color="white"/>
<stop offset="0.27" stop-color="#C82F1C"/>
<stop offset="0.33" stop-color="#820C01"/>
<stop offset="0.46" stop-color="#A31601"/>
<stop offset="0.72" stop-color="#B31301"/>
<stop offset="0.99" stop-color="#E82609"/>
<stop offset="1" stop-color="#E82609"/>
</linearGradient>
<linearGradient id="paint9_linear" x1="16.4283" y1="27.6107" x2="9.29156" y2="24.5319" gradientUnits="userSpaceOnUse">
<stop stop-color="#8C0C01"/>
<stop offset="0.54" stop-color="#990C00"/>
<stop offset="0.99" stop-color="#A80D0E"/>
<stop offset="1" stop-color="#A80D0E"/>
</linearGradient>
<linearGradient id="paint10_linear" x1="29.6017" y1="18.6483" x2="22.3239" y2="13.3386" gradientUnits="userSpaceOnUse">
<stop stop-color="#7E110B"/>
<stop offset="0.99" stop-color="#9E0C00"/>
<stop offset="1" stop-color="#9E0C00"/>
</linearGradient>
<linearGradient id="paint11_linear" x1="32.1062" y1="7.73872" x2="28.7152" y2="4.20303" gradientUnits="userSpaceOnUse">
<stop stop-color="#79130D"/>
<stop offset="0.99" stop-color="#9E120B"/>
<stop offset="1" stop-color="#9E120B"/>
</linearGradient>
<radialGradient id="paint12_radial" cx="0" cy="0" r="1" gradientUnits="userSpaceOnUse" gradientTransform="translate(23.8485 12.816) scale(8.35006 4.24796)">
<stop stop-color="#A80D00"/>
<stop offset="0.99" stop-color="#7E0E08"/>
<stop offset="1" stop-color="#7E0E08"/>
</radialGradient>
<radialGradient id="paint13_radial" cx="0" cy="0" r="1" gradientUnits="userSpaceOnUse" gradientTransform="translate(12.2856 23.5293) scale(11.1001 8.41274)">
<stop stop-color="#A30C00"/>
<stop offset="0.99" stop-color="#800E08"/>
<stop offset="1" stop-color="#800E08"/>
</radialGradient>
<linearGradient id="paint14_linear" x1="4.42263" y1="31.857" x2="-1.68969" y2="26.6457" gradientUnits="userSpaceOnUse">
<stop stop-color="#8B2114"/>
<stop offset="0.43" stop-color="#9E100A"/>
<stop offset="0.99" stop-color="#B3100C"/>
<stop offset="1" stop-color="#B3100C"/>
</linearGradient>
<linearGradient id="paint15_linear" x1="25.6427" y1="1.58189" x2="27.336" y2="5.98165" gradientUnits="userSpaceOnUse">
<stop stop-color="#B31000"/>
<stop offset="0.44" stop-color="#910F08"/>
<stop offset="0.99" stop-color="#791C12"/>
<stop offset="1" stop-color="#791C12"/>
</linearGradient>
</defs>
</svg>
