<svg width="38" height="29" viewBox="0 0 38 29" fill="none" xmlns="http://www.w3.org/2000/svg">
<g clip-path="url(#clip0)">
<path d="M32.6996 16.6608C31.3711 16.6684 30.2207 16.9931 29.2558 17.4765C28.8996 16.759 28.5433 16.1321 28.484 15.664C28.4172 15.1202 28.3356 14.7879 28.4172 14.1384C28.4988 13.4889 28.8699 12.5675 28.8699 12.492C28.8624 12.424 28.7882 12.0918 28.0238 12.0842C27.2594 12.0767 26.5988 12.2352 26.5246 12.4392C26.4504 12.6431 26.3019 13.1113 26.2055 13.5946C26.0719 14.3045 24.6765 16.8194 23.8824 18.141C23.6226 17.6274 23.4 17.1743 23.3554 16.8117C23.2887 16.2681 23.2069 15.9357 23.2887 15.2863C23.3703 14.6367 23.7414 13.7155 23.7414 13.6399C23.734 13.572 23.6598 13.2397 22.8954 13.2321C22.1308 13.2246 21.4704 13.3832 21.3962 13.5871C21.3219 13.791 21.2403 14.2743 21.077 14.7425C20.9211 15.2108 19.0656 19.4097 18.5832 20.5048C18.3383 21.0636 18.1231 21.5092 17.9672 21.8113C17.8113 22.1134 17.9598 21.8339 17.9449 21.8642C17.8113 22.1209 17.7371 22.2644 17.7371 22.2644V22.272C17.6332 22.4608 17.5219 22.642 17.4698 22.642C17.4327 22.642 17.3585 22.136 17.4847 21.4413C17.7593 19.9837 18.4273 17.7106 18.4199 17.6275C18.4199 17.5898 18.546 17.1894 17.9894 16.9856C17.4476 16.7817 17.2547 17.1215 17.2101 17.1215C17.1655 17.1215 17.1284 17.2424 17.1284 17.2424C17.1284 17.2424 17.7296 14.6823 15.978 14.6823C14.8796 14.6823 13.3655 15.8982 12.6159 17.0083C12.1409 17.2726 11.1316 17.8314 10.0628 18.4281C9.6546 18.6547 9.23156 18.8963 8.83078 19.1153L8.74921 19.0246C6.62655 16.7212 2.70038 15.0899 2.86366 11.9936C2.92304 10.8683 3.30897 7.90035 10.4044 4.30556C16.2157 1.36025 20.8692 2.16832 21.6781 3.96572C22.8285 6.53342 19.1918 11.3063 13.1505 11.9936C10.8497 12.2579 9.63983 11.3517 9.33561 11.0118C9.01647 10.6569 8.97194 10.6418 8.85319 10.7097C8.66022 10.8155 8.77897 11.1326 8.85319 11.3214C9.03131 11.7972 9.7735 12.6431 11.0352 13.066C12.141 13.436 14.8426 13.6399 18.1083 12.3561C21.7673 10.9136 24.6247 6.91103 23.786 3.56546C22.9325 0.159466 17.3809 -0.958243 12.1337 0.93733C9.00897 2.07014 5.6246 3.83733 3.19022 6.15582C0.295694 8.90478 -0.164462 11.3063 0.0285064 12.3032C0.703971 15.8602 5.52069 18.1787 7.45038 19.8931C7.3539 19.9459 7.26483 19.9987 7.18319 20.0441C6.21835 20.5274 2.54452 22.4834 1.62421 24.5526C0.585147 26.8938 1.78749 28.578 2.58905 28.8045C5.06796 29.5069 7.60624 28.2457 8.97929 26.1688C10.3448 24.092 10.1816 21.3959 9.55077 20.1649L9.52843 20.1196L10.2855 19.6665C10.7754 19.372 11.2578 19.1001 11.6808 18.8659C11.4433 19.5229 11.2726 20.3008 11.1836 21.4336C11.0797 22.7629 11.6141 24.4847 12.3191 25.1643C12.6308 25.4588 13.0019 25.4664 13.232 25.4664C14.0484 25.4664 14.4195 24.7791 14.8277 23.956C15.3324 22.9516 15.7777 21.7886 15.7777 21.7886C15.7777 21.7886 15.2211 24.9378 16.7426 24.9378C17.2992 24.9378 17.8558 24.2052 18.1082 23.8276V23.8352C18.1082 23.8352 18.123 23.8125 18.1527 23.7597C18.1839 23.7128 18.2136 23.665 18.2418 23.6162V23.6011C18.4644 23.2084 18.9617 22.3097 19.7039 20.822C20.6612 18.9037 21.5816 16.5022 21.5816 16.5022C21.5816 16.5022 21.6707 17.0912 21.9453 18.0579C22.1085 18.6319 22.4648 19.2587 22.7394 19.8704C22.5167 20.1876 22.3831 20.3689 22.3831 20.3689L22.3905 20.3765C22.2125 20.6181 22.012 20.875 21.8043 21.1317C21.0473 22.053 20.1418 23.1028 20.023 23.4049C19.882 23.7598 19.9117 24.0241 20.1863 24.2357C20.3867 24.3867 20.743 24.4168 21.1215 24.3867C21.8043 24.3413 22.2793 24.1677 22.5168 24.0619C22.8879 23.926 23.3109 23.722 23.7191 23.42C24.4613 22.8612 24.9141 22.0682 24.8695 21.0109C24.8473 20.4294 24.6617 19.8555 24.4316 19.3117C24.4984 19.2135 24.5653 19.1153 24.632 19.0096C25.8047 17.265 26.7101 15.3469 26.7101 15.3469C26.7101 15.3469 26.7992 15.9359 27.0738 16.9026C27.2148 17.3935 27.4969 17.9297 27.7492 18.4584C26.6508 19.3722 25.9605 20.4295 25.723 21.1243C25.2851 22.4081 25.6266 22.9896 26.2723 23.1256C26.5616 23.186 26.9773 23.0501 27.289 22.9141C27.6749 22.7857 28.1425 22.5667 28.573 22.242C29.3152 21.6831 30.0277 20.9053 29.9906 19.8555C29.9683 19.3722 29.8422 18.8964 29.6715 18.4433C30.6066 18.0506 31.8163 17.824 33.3527 18.0128C36.6555 18.4055 37.3086 20.505 37.1825 21.3811C37.0563 22.2572 36.3661 22.7404 36.1359 22.8915C35.9058 23.035 35.8316 23.0879 35.8539 23.1936C35.8836 23.3522 35.9875 23.3446 36.1879 23.3145C36.4625 23.2691 37.9246 22.597 37.984 20.9809C38.073 18.9038 36.1359 16.6382 32.6996 16.6608ZM7.22772 25.3985C6.13671 26.6144 4.60038 27.0751 3.94726 26.6824C3.24218 26.267 3.51671 24.4772 4.86015 23.1858C5.67655 22.4004 6.73788 21.6754 7.43554 21.2298C7.5914 21.1316 7.8289 20.9882 8.11093 20.8144C8.15546 20.7843 8.18515 20.7691 8.18515 20.7691C8.2371 20.7389 8.29647 20.7011 8.35585 20.6634C8.85311 22.5061 8.37811 24.1222 7.22772 25.3985ZM15.2062 19.878C14.8277 20.822 14.0262 23.2462 13.5437 23.1103C13.128 22.997 12.8758 21.1618 13.462 19.3493C13.7589 18.4354 14.3898 17.348 14.7609 16.925C15.3621 16.2453 16.0151 16.0188 16.1785 16.2982C16.3715 16.6608 15.4437 19.2889 15.2062 19.878ZM21.7894 23.08C21.6262 23.1632 21.4777 23.2235 21.4109 23.1783C21.359 23.1481 21.4776 23.0348 21.4776 23.0348C21.4776 23.0348 22.3015 22.1361 22.628 21.7207C22.8136 21.4792 23.0362 21.1997 23.2737 20.8825V20.9731C23.2738 22.0605 22.2496 22.7855 21.7894 23.08ZM26.8659 21.9019C26.7472 21.8113 26.7621 21.5319 27.1628 20.6558C27.3187 20.3084 27.6749 19.7269 28.2909 19.1756C28.3651 19.4022 28.4098 19.6211 28.4023 19.8251C28.3949 21.1845 27.4449 21.6905 26.8659 21.9019Z" fill="#CF649A"/>
</g>
<defs>
<clipPath id="clip0">
<rect width="38" height="29" fill="white"/>
</clipPath>
</defs>
</svg>
