<svg width="548" height="241" viewBox="0 0 548 241" fill="none" xmlns="http://www.w3.org/2000/svg">
<mask id="mask0" mask-type="alpha" maskUnits="userSpaceOnUse" x="0" y="0" width="548" height="241">
<rect width="548" height="241" fill="#D9F4F4"/>
</mask>
<g mask="url(#mask0)">
<path d="M13.5984 332.409C67.041 466.941 240.444 535.005 331.904 528.521C472.714 518.54 534.612 434.182 532.65 369.528C530.613 302.407 481.429 252.067 353.706 203.152C236.723 158.349 245.702 77.9197 171.019 57.9568C77.108 32.8542 -39.8442 197.876 13.5984 332.409Z" fill="url(#paint0_linear)"/>
<circle cx="312" cy="272" r="236.568" transform="rotate(113.69 312 272)" stroke="url(#paint1_linear)" stroke-width="2"/>
</g>
<path fill-rule="evenodd" clip-rule="evenodd" d="M367 182.708C366.448 182.708 366 183.156 366 183.708V214.999C366 215.551 366.448 215.999 367 215.999H449.335C449.887 215.999 450.335 215.551 450.335 214.999V132.664C450.335 132.111 449.887 131.664 449.335 131.664H418.151C417.6 131.664 417.153 131.219 417.151 130.668L417.142 128.652C417.141 128.368 417.263 128.098 417.467 127.9C419.991 125.466 421.554 122.045 421.539 118.262C421.509 110.907 415.522 104.97 408.168 105C400.814 105.03 394.877 111.016 394.907 118.371C394.922 122.154 396.514 125.562 399.057 127.975C399.263 128.171 399.387 128.44 399.388 128.725L399.396 130.66C399.398 131.214 398.95 131.664 398.396 131.664H367C366.448 131.664 366 132.111 366 132.664V163.954C366 164.506 366.448 164.954 367 164.954H368.943C369.228 164.954 369.497 164.831 369.694 164.625C372.118 162.092 375.533 160.515 379.316 160.515C386.67 160.515 392.632 166.477 392.632 173.831C392.632 181.185 386.67 187.147 379.316 187.147C375.533 187.147 372.118 185.569 369.694 183.036C369.497 182.831 369.228 182.708 368.943 182.708H367Z" fill="url(#paint2_linear)"/>
<mask id="mask1" mask-type="alpha" maskUnits="userSpaceOnUse" x="366" y="105" width="85" height="111">
<path fill-rule="evenodd" clip-rule="evenodd" d="M367 182.708C366.448 182.708 366 183.156 366 183.708V214.999C366 215.551 366.448 215.999 367 215.999H449.335C449.887 215.999 450.335 215.551 450.335 214.999V132.664C450.335 132.111 449.887 131.664 449.335 131.664H418.151C417.6 131.664 417.153 131.219 417.151 130.668L417.142 128.652C417.141 128.368 417.263 128.098 417.467 127.9C419.991 125.466 421.554 122.045 421.539 118.262C421.509 110.907 415.522 104.97 408.168 105C400.814 105.03 394.877 111.016 394.907 118.371C394.922 122.154 396.514 125.562 399.057 127.975C399.263 128.171 399.387 128.44 399.388 128.725L399.396 130.66C399.398 131.214 398.95 131.664 398.396 131.664H367C366.448 131.664 366 132.111 366 132.664V163.954C366 164.506 366.448 164.954 367 164.954H368.943C369.228 164.954 369.497 164.831 369.694 164.625C372.118 162.092 375.533 160.515 379.316 160.515C386.67 160.515 392.632 166.477 392.632 173.831C392.632 181.185 386.67 187.147 379.316 187.147C375.533 187.147 372.118 185.569 369.694 183.036C369.497 182.831 369.228 182.708 368.943 182.708H367Z" fill="url(#paint3_linear)"/>
</mask>
<g mask="url(#mask1)">
<path d="M455.922 148.841C423.786 140.095 397.321 144.129 378.574 169.69C359.826 195.25 400.283 227.186 414.975 210.786C442.838 179.68 370.475 95.7441 360.643 108.416M421.068 120.897C422.311 144.851 396.055 187.532 367.949 168.003C347.808 154.008 409.227 51.505 470.635 187.129C465.201 180.291 413.924 178.819 407.285 194.469C396.153 220.705 448.341 249.148 466.24 260.218" stroke="url(#paint4_linear)" stroke-width="1.5"/>
</g>
<path fill-rule="evenodd" clip-rule="evenodd" d="M367 52.6606C366.448 52.6606 366 53.1083 366 53.6606V86C366 86.5523 366.448 87 367 87H401.633C402.185 87 402.633 86.5524 402.633 86.0002L402.633 83.9423C402.633 83.6579 402.511 83.3883 402.305 83.1918C399.686 80.69 398.055 77.1631 398.056 73.2554C398.057 65.6688 404.209 59.5196 411.795 59.5209C419.382 59.5222 425.531 65.6734 425.53 73.2601C425.529 77.1676 423.897 80.6939 421.277 83.1948C421.072 83.3912 420.949 83.6608 420.949 83.9452L420.949 85.9998C420.949 86.5522 421.396 87 421.949 87H452C452.552 87 453 86.5523 453 86V1C453 0.447716 452.552 0 452 0H421.949C421.396 0 420.949 0.447815 420.949 1.00017L420.949 3.04958C420.949 3.33402 421.072 3.60358 421.277 3.8C423.897 6.30091 425.529 9.82716 425.53 13.7348C425.531 21.3214 419.382 27.4726 411.795 27.4739C404.209 27.4752 398.057 21.326 398.056 13.7394C398.055 9.83171 399.686 6.30486 402.305 3.80305C402.511 3.60656 402.633 3.33696 402.633 3.05251L402.633 0.999832C402.633 0.447609 402.185 0 401.633 0H367C366.448 0 366 0.447716 366 1V33.3448C366 33.8971 366.448 34.3448 367 34.3448H369.051C369.336 34.3448 369.605 34.2223 369.802 34.0166C372.303 31.3975 375.83 29.7659 379.737 29.7659C387.324 29.7659 393.474 35.9161 393.474 43.5028C393.474 51.0894 387.324 57.2396 379.737 57.2396C375.83 57.2396 372.303 55.608 369.802 52.9888C369.605 52.7831 369.336 52.6606 369.051 52.6606H367Z" fill="url(#paint5_linear)"/>
<mask id="mask2" mask-type="alpha" maskUnits="userSpaceOnUse" x="366" y="0" width="87" height="87">
<path fill-rule="evenodd" clip-rule="evenodd" d="M367 52.6606C366.448 52.6606 366 53.1083 366 53.6606V86C366 86.5523 366.448 87 367 87H401.633C402.185 87 402.633 86.5524 402.633 86.0002L402.633 83.9423C402.633 83.6579 402.511 83.3883 402.305 83.1918C399.686 80.69 398.055 77.1631 398.056 73.2554C398.057 65.6688 404.209 59.5196 411.795 59.5209C419.382 59.5222 425.531 65.6734 425.53 73.2601C425.529 77.1676 423.897 80.6939 421.277 83.1948C421.072 83.3912 420.949 83.6608 420.949 83.9452L420.949 85.9998C420.949 86.5522 421.396 87 421.949 87H452C452.552 87 453 86.5523 453 86V1C453 0.447716 452.552 0 452 0H421.949C421.396 0 420.949 0.447815 420.949 1.00017L420.949 3.04958C420.949 3.33402 421.072 3.60358 421.277 3.8C423.897 6.30091 425.529 9.82716 425.53 13.7348C425.531 21.3214 419.382 27.4726 411.795 27.4739C404.209 27.4752 398.057 21.326 398.056 13.7394C398.055 9.83171 399.686 6.30486 402.305 3.80305C402.511 3.60656 402.633 3.33696 402.633 3.05251L402.633 0.999832C402.633 0.447609 402.185 0 401.633 0H367C366.448 0 366 0.447716 366 1V33.3448C366 33.8971 366.448 34.3448 367 34.3448H369.051C369.336 34.3448 369.605 34.2223 369.802 34.0166C372.303 31.3975 375.83 29.7659 379.737 29.7659C387.324 29.7659 393.474 35.9161 393.474 43.5028C393.474 51.0894 387.324 57.2396 379.737 57.2396C375.83 57.2396 372.303 55.608 369.802 52.9888C369.605 52.7831 369.336 52.6606 369.051 52.6606H367Z" fill="url(#paint6_linear)"/>
</mask>
<g mask="url(#mask2)">
<path d="M381.002 40.0002C374.501 34.6051 372.502 22.563 381.002 14.5002C396.501 -0.200352 413.597 0.162275 424.499 -0.199957C430.395 -0.395839 436.298 1.58346 441.233 4.73464C443.899 6.43732 446.282 8.64582 445.955 12.0584C445.325 18.6386 437.72 21.3882 432.732 24.1153C420.343 30.889 406.285 36.2836 394.609 44.0502C362.445 65.4443 401.943 123.962 431.988 99.2025C461.677 74.7365 418.531 49.0742 408.27 27.661C402.769 16.1821 423.427 24.588 426.711 25.8997C435.683 29.4826 444.435 33.8422 453.656 36.7722C462.575 39.606 472.147 39.9605 481.367 38.5537C482.01 38.4556 491.109 37.1769 489.862 34.6052C488.27 31.3225 479.859 32.7074 477.306 33.1905C469.664 34.6368 463.916 39.4267 458.438 44.6772C449.668 53.0837 441.95 62.6131 433.664 71.4909C424.55 81.2566 425.429 91.1288 424.499 105.5" stroke="url(#paint7_linear)" stroke-width="1.5" stroke-linecap="round" stroke-linejoin="round"/>
</g>
<rect x="132.484" y="117.38" width="10.9078" height="10.9078" rx="1" transform="rotate(-92.536 132.484 117.38)" fill="#EE5558"/>
<defs>
<linearGradient id="paint0_linear" x1="517.621" y1="-49.4499" x2="-112.005" y2="1043.97" gradientUnits="userSpaceOnUse">
<stop stop-color="#149CE8" stop-opacity="0.2"/>
<stop offset="0.649108" stop-color="#D7F3F4" stop-opacity="0.13"/>
</linearGradient>
<linearGradient id="paint1_linear" x1="317.994" y1="506.358" x2="313.179" y2="34.4322" gradientUnits="userSpaceOnUse">
<stop stop-color="#7ACFD5"/>
<stop offset="1" stop-color="#58C5E8" stop-opacity="0.12"/>
</linearGradient>
<linearGradient id="paint2_linear" x1="336" y1="116" x2="569.502" y2="305.997" gradientUnits="userSpaceOnUse">
<stop stop-color="#74E7EB"/>
<stop offset="0.985841" stop-color="#13539A"/>
</linearGradient>
<linearGradient id="paint3_linear" x1="377.855" y1="202.75" x2="418.994" y2="-32.2423" gradientUnits="userSpaceOnUse">
<stop stop-color="#577E94"/>
<stop offset="0.985841" stop-color="#B7DEE0"/>
</linearGradient>
<linearGradient id="paint4_linear" x1="469.297" y1="162.119" x2="363.275" y2="200.78" gradientUnits="userSpaceOnUse">
<stop stop-color="#DEF3FF"/>
<stop offset="1" stop-color="#E6F6FF" stop-opacity="0.22"/>
</linearGradient>
<linearGradient id="paint5_linear" x1="643.433" y1="215.413" x2="248.743" y2="-97.8781" gradientUnits="userSpaceOnUse">
<stop offset="0.410194" stop-color="#74E7EB"/>
<stop offset="0.914125" stop-color="#13539A"/>
</linearGradient>
<linearGradient id="paint6_linear" x1="452.324" y1="108.581" x2="293.344" y2="-123.775" gradientUnits="userSpaceOnUse">
<stop stop-color="#7CB5CF"/>
<stop offset="0.718844" stop-color="#577E94"/>
</linearGradient>
<linearGradient id="paint7_linear" x1="399.664" y1="-5.25448" x2="443.566" y2="107.816" gradientUnits="userSpaceOnUse">
<stop stop-color="#D7F3F4" stop-opacity="0.45"/>
<stop offset="0.791667" stop-color="#D7F3F4" stop-opacity="0.88"/>
<stop offset="0.96875" stop-color="#D7F3F4" stop-opacity="0.88"/>
</linearGradient>
</defs>
</svg>
