<svg width="70" height="17" viewBox="0 0 70 17" fill="none" xmlns="http://www.w3.org/2000/svg">
<g clip-path="url(#clip0)">
<path d="M10.1916 16.4417L0 11.9875V9.52079L10.1916 5.08691V7.99187L3.08284 10.7235L10.1916 13.5571V16.4417Z" fill="#0000FF"/>
<path d="M12.5137 16.1092L16.3976 10.5337L12.6759 5.2844H16.1543L18.0608 8.2607L20.0687 5.2844H23.4152L19.7644 10.4114L23.7498 16.1092H20.2512L18.0608 12.7557L15.85 16.1092H12.5137ZM25.2304 5.2844H27.8569V6.76236C28.7966 5.61398 29.9155 5.03979 31.2135 5.03977C31.9031 5.03979 32.5014 5.18248 33.0085 5.46787C33.5155 5.75328 33.9313 6.18478 34.2558 6.76236C34.729 6.18478 35.2395 5.75328 35.7871 5.46787C36.3347 5.18248 36.9195 5.03979 37.5415 5.03977C38.3324 5.03979 39.0017 5.20117 39.5494 5.52393C40.097 5.84672 40.506 6.32068 40.7764 6.94583C40.9725 7.40791 41.0705 8.15538 41.0705 9.18825V16.1092H38.2209V9.92213C38.2209 8.8485 38.1229 8.15539 37.9268 7.8428C37.6631 7.43509 37.2575 7.23124 36.7099 7.23123C36.311 7.23124 35.9358 7.35355 35.5843 7.59817C35.2327 7.84281 34.9792 8.20125 34.8237 8.67351C34.6682 9.14579 34.5904 9.89156 34.5905 10.9108V16.1092H31.7409V10.177C31.7409 9.1237 31.6901 8.44418 31.5887 8.13839C31.4873 7.83261 31.3301 7.60498 31.1172 7.45547C30.9042 7.30599 30.6152 7.23124 30.2501 7.23123C29.8107 7.23124 29.4152 7.35015 29.0637 7.58798C28.7121 7.82582 28.4603 8.16898 28.3082 8.61745C28.156 9.06594 28.08 9.81002 28.08 10.8497V16.1092H25.2304V5.2844ZM43.8998 16.1092V1.1665H46.7494V16.1092H43.8998Z" fill="#D40000"/>
<path d="M52.6309 16.2131L56.312 0.760742H58.4517L54.73 16.2131H52.6309Z" fill="#0000FF"/>
<path d="M59.3809 16.4418V13.5572L66.4998 10.744L59.3809 7.96135V5.09717L69.5826 9.53104V11.9773L59.3809 16.4418Z" fill="#0000FF"/>
</g>
<defs>
<clipPath id="clip0">
<rect width="69.5831" height="15.6807" fill="white" transform="translate(0 0.760742)"/>
</clipPath>
</defs>
</svg>
