<svg width="12" height="22" viewBox="0 0 12 22" fill="none" xmlns="http://www.w3.org/2000/svg">
<path d="M11.5064 0.868022L8.86051 0.86377C5.88796 0.86377 3.96697 2.83803 3.96697 5.89372V8.21286H1.30666C1.07678 8.21286 0.890625 8.39955 0.890625 8.62983V11.99C0.890625 12.2203 1.07699 12.4068 1.30666 12.4068H3.96697V20.8855C3.96697 21.1158 4.15312 21.3023 4.38301 21.3023H7.85395C8.08383 21.3023 8.26999 21.1156 8.26999 20.8855V12.4068H11.3805C11.6104 12.4068 11.7965 12.2203 11.7965 11.99L11.7978 8.62983C11.7978 8.51926 11.7539 8.41337 11.676 8.33512C11.5981 8.25688 11.4919 8.21286 11.3816 8.21286H8.26999V6.24689C8.26999 5.30197 8.49478 4.82228 9.72357 4.82228L11.506 4.82164C11.7356 4.82164 11.9218 4.63496 11.9218 4.40489V1.28477C11.9218 1.05492 11.7358 0.868447 11.5064 0.868022Z" fill="#152B46"/>
</svg>
