<svg width="28" height="29" viewBox="0 0 28 29" fill="none" xmlns="http://www.w3.org/2000/svg">
<path d="M19.292 28.8584V18.0224H22.9211L23.464 13.81H19.292V11.122C19.292 9.9024 19.6311 9.07018 21.3796 9.07018H23.6102V5.30262C22.5304 5.18805 21.445 5.13248 20.3591 5.13618C17.1438 5.13618 14.9427 7.09929 14.9427 10.7051V13.81H11.3058V18.0224H14.9427V28.8584H1.55556C1.143 28.8584 0.747335 28.6945 0.455612 28.4028C0.163888 28.1111 0 27.7154 0 27.3028V2.41395C0 2.00139 0.163888 1.60573 0.455612 1.31401C0.747335 1.02229 1.143 0.858398 1.55556 0.858398H26.4444C26.857 0.858398 27.2527 1.02229 27.5444 1.31401C27.8361 1.60573 28 2.00139 28 2.41395V27.3028C28 27.7154 27.8361 28.1111 27.5444 28.4028C27.2527 28.6945 26.857 28.8584 26.4444 28.8584H19.292Z" fill="#152B46"/>
</svg>
