<svg width="28" height="29" viewBox="0 0 28 29" fill="none" xmlns="http://www.w3.org/2000/svg">
<path d="M23.8544 24.7191H19.7089V18.2215C19.7089 16.6722 19.6778 14.678 17.5467 14.678C15.386 14.678 15.0562 16.3642 15.0562 18.108V24.7191H10.9091V11.3584H14.8913V13.1784H14.9458C15.5027 12.13 16.856 11.0208 18.8782 11.0208C23.0782 11.0208 23.856 13.7866 23.856 17.3846V24.7191H23.8544ZM6.22689 9.53062C5.91042 9.53103 5.59698 9.46897 5.30454 9.34801C5.0121 9.22704 4.74642 9.04955 4.52271 8.8257C4.29901 8.60185 4.12168 8.33605 4.00091 8.04353C3.88013 7.75101 3.81827 7.43753 3.81889 7.12107C3.8192 6.64481 3.96072 6.17934 4.22557 5.78351C4.49042 5.38769 4.8667 5.0793 5.30682 4.89732C5.74695 4.71535 6.23115 4.66798 6.69819 4.76119C7.16524 4.85441 7.59415 5.08403 7.9307 5.42101C8.26725 5.75799 8.49631 6.1872 8.58892 6.65437C8.68153 7.12154 8.63353 7.60567 8.45099 8.04556C8.26845 8.48545 7.95957 8.86133 7.56341 9.12566C7.16724 9.39 6.70159 9.53093 6.22533 9.53062H6.22689ZM8.30511 24.7191H4.14711V11.3584H8.30667V24.7191H8.30511ZM25.9311 0.858398H2.06733C0.922444 0.858398 0 1.76062 0 2.87595V26.8408C0 27.9562 0.924 28.8584 2.06578 28.8584H25.9249C27.0667 28.8584 28 27.9562 28 26.8408V2.87595C28 1.76062 27.0667 0.858398 25.9249 0.858398H25.9296H25.9311Z" fill="#152B46"/>
</svg>
