<svg width="20" height="20" viewBox="0 0 20 20" fill="none" xmlns="http://www.w3.org/2000/svg">
<path fill-rule="evenodd" clip-rule="evenodd" d="M2.58444 0.588379C1.16381 0.588379 0.234375 1.52182 0.234375 2.74823C0.234375 3.9486 1.13687 4.90902 2.52994 4.90902H2.55688C4.00539 4.90902 4.90602 3.9486 4.90602 2.74823C4.87846 1.52182 4.00539 0.588379 2.58444 0.588379ZM19.6067 11.9477V19.1177H15.4538V12.4282C15.4538 10.7486 14.8542 9.60153 13.3506 9.60153C12.2031 9.60153 11.5214 10.3738 11.2204 11.1215C11.1111 11.3887 11.0829 11.7598 11.0829 12.1346V19.1173H6.92969C6.92969 19.1173 6.98544 7.78765 6.92969 6.61487H11.0832V8.38659C11.0793 8.39313 11.0746 8.3996 11.07 8.40601C11.0647 8.41326 11.0596 8.42043 11.0556 8.42751H11.0832V8.38659C11.6351 7.53654 12.6193 6.32129 14.826 6.32129C17.5583 6.32129 19.6067 8.1082 19.6067 11.9477ZM4.63309 19.1179H0.481445V6.61509H4.63309V19.1179Z" fill="#152B46"/>
</svg>
