<svg width="31" height="26" viewBox="0 0 31 26" fill="none" xmlns="http://www.w3.org/2000/svg">
<path d="M30.9985 3.82617C29.8374 4.33556 28.6062 4.6701 27.3455 4.81872C28.6743 4.03046 29.6689 2.7899 30.1438 1.3282C28.8967 2.06432 27.5295 2.5802 26.1045 2.85926C25.1474 1.84345 23.8786 1.16976 22.4956 0.942923C21.1126 0.716087 19.6928 0.948816 18.4568 1.60493C17.2209 2.26104 16.2382 3.30378 15.6614 4.57103C15.0846 5.83828 14.946 7.25904 15.2673 8.61244C12.7384 8.48672 10.2644 7.83488 8.00593 6.69924C5.74747 5.5636 3.75505 3.96955 2.15802 2.02057C1.59272 2.98363 1.29565 4.07842 1.29724 5.19281C1.29724 7.38005 2.41959 9.31236 4.12593 10.4437C3.11613 10.4122 2.12856 10.1417 1.24554 9.65477V9.73321C1.24584 11.1899 1.75404 12.6017 2.68398 13.7291C3.61392 14.8566 4.90836 15.6304 6.34782 15.9193C5.41042 16.1713 4.42752 16.2084 3.47351 16.0279C3.87936 17.2818 4.67039 18.3784 5.73584 19.1641C6.80129 19.9499 8.08781 20.3855 9.41528 20.4099C8.09595 21.4377 6.58534 22.1974 4.96979 22.6457C3.35425 23.094 1.66547 23.222 0 23.0225C2.90731 24.8771 6.2917 25.8616 9.74833 25.8584C21.4479 25.8584 27.8459 16.2451 27.8459 7.908C27.8459 7.63648 27.8383 7.36195 27.8261 7.09344C29.0714 6.2007 30.1462 5.0948 31 3.82768L30.9985 3.82617Z" fill="#152B46"/>
</svg>
